<svg width="18" height="18" viewBox="0 0 18 18" fill="none" xmlns="http://www.w3.org/2000/svg">
<path d="M7.49817 9.75H10.4982C10.6971 9.75 10.8879 9.67098 11.0285 9.53033C11.1692 9.38968 11.2482 9.19891 11.2482 9C11.2482 8.80109 11.1692 8.61032 11.0285 8.46967C10.8879 8.32902 10.6971 8.25 10.4982 8.25H7.49817C7.29926 8.25 7.1085 8.32902 6.96784 8.46967C6.82719 8.61032 6.74817 8.80109 6.74817 9C6.74817 9.19891 6.82719 9.38968 6.96784 9.53033C7.1085 9.67098 7.29926 9.75 7.49817 9.75V9.75ZM14.2482 2.25H3.74817C3.22052 2.25409 2.71108 2.44351 2.30893 2.78514C1.90677 3.12676 1.63748 3.59887 1.54812 4.11892C1.45877 4.63897 1.55503 5.17388 1.8201 5.63015C2.08516 6.08642 2.50215 6.43502 2.99817 6.615V13.5C2.99817 14.0967 3.23523 14.669 3.65718 15.091C4.07914 15.5129 4.65144 15.75 5.24817 15.75H12.7482C13.3449 15.75 13.9172 15.5129 14.3392 15.091C14.7611 14.669 14.9982 14.0967 14.9982 13.5V6.615C15.4942 6.43502 15.9112 6.08642 16.1763 5.63015C16.4413 5.17388 16.5376 4.63897 16.4482 4.11892C16.3589 3.59887 16.0896 3.12676 15.6874 2.78514C15.2853 2.44351 14.7758 2.25409 14.2482 2.25ZM13.4982 13.5C13.4982 13.6989 13.4192 13.8897 13.2785 14.0303C13.1379 14.171 12.9471 14.25 12.7482 14.25H5.24817C5.04926 14.25 4.8585 14.171 4.71784 14.0303C4.57719 13.8897 4.49817 13.6989 4.49817 13.5V6.75H13.4982V13.5ZM14.2482 5.25H3.74817C3.54926 5.25 3.3585 5.17098 3.21784 5.03033C3.07719 4.88968 2.99817 4.69891 2.99817 4.5C2.99817 4.30109 3.07719 4.11032 3.21784 3.96967C3.3585 3.82902 3.54926 3.75 3.74817 3.75H14.2482C14.4471 3.75 14.6379 3.82902 14.7785 3.96967C14.9192 4.11032 14.9982 4.30109 14.9982 4.5C14.9982 4.69891 14.9192 4.88968 14.7785 5.03033C14.6379 5.17098 14.4471 5.25 14.2482 5.25Z" fill="#525256"/>
</svg>
