<svg width="13" height="14" viewBox="0 0 13 14" fill="none" xmlns="http://www.w3.org/2000/svg">
<path fill-rule="evenodd" clip-rule="evenodd" d="M11.108 10.7274C10.9863 10.5102 10.8386 10.293 10.6736 10.0627C10.2808 9.5722 10.0085 8.99639 9.87858 8.38153L9.69612 5.81847C9.58752 3.83318 8.42762 1.82617 6.12087 1.82617H5.15646C2.8497 1.82617 1.68112 3.83318 1.56382 5.81413L1.38137 8.38153C1.25204 9.00183 0.97984 9.58343 0.586385 10.0801C0.552703 10.1316 0.51902 10.1822 0.485905 10.232L0.485837 10.2321C0.373761 10.4005 0.26818 10.5591 0.191065 10.71C-0.0276617 11.0036 -0.0613177 11.3957 0.104181 11.7222C0.297229 12.0651 0.666843 12.27 1.0599 12.2522H4.4136C4.21725 12.7932 4.39899 13.3989 4.86073 13.7424C5.32246 14.086 5.95486 14.086 6.4166 13.7424C6.87833 13.3989 7.06007 12.7932 6.86372 12.2522H10.2174C10.6142 12.2666 10.9848 12.0544 11.1731 11.7048C11.3388 11.3931 11.3135 11.0144 11.108 10.7274ZM6.07308 12.6866C6.07308 12.9265 5.87859 13.121 5.63866 13.121C5.39874 13.121 5.20425 12.9265 5.20425 12.6866C5.20425 12.4467 5.39874 12.2522 5.63866 12.2522C5.87859 12.2522 6.07308 12.4467 6.07308 12.6866ZM10.2348 11.3834C10.3434 11.3834 10.4173 11.3443 10.4173 11.3095C10.4322 11.2708 10.4238 11.227 10.3955 11.1966C10.3513 11.1261 10.3076 11.0552 10.264 10.9846C10.1704 10.8331 10.0777 10.6828 9.98284 10.5406C9.54842 9.91503 9.08359 9.21127 9.03146 8.44235L8.84466 5.87929C8.75344 4.40661 7.98452 2.69501 6.12087 2.69501H5.15646C3.29281 2.69501 2.52389 4.40661 2.43266 5.87494L2.24586 8.44235C2.1807 9.20258 1.74628 9.91503 1.31186 10.5406C1.17285 10.7491 1.03818 10.9576 0.920886 11.1575C0.877445 11.227 0.860068 11.2748 0.877445 11.3095C0.894821 11.3443 0.951296 11.3834 1.0599 11.3834H10.2348Z" fill="#0A5AE3"/>
<path d="M12.2823 3.04348C12.2823 4.4482 11.1435 5.58696 9.73879 5.58696C8.33407 5.58696 7.19531 4.4482 7.19531 3.04348C7.19531 1.63875 8.33407 0.5 9.73879 0.5C11.1435 0.5 12.2823 1.63875 12.2823 3.04348Z" fill="#F36A6A" stroke="white"/>
</svg>
