<svg width="19" height="18" viewBox="0 0 19 18" fill="none" xmlns="http://www.w3.org/2000/svg">
<path d="M8.14704 9.75H11.147C11.346 9.75 11.5367 9.67098 11.6774 9.53033C11.818 9.38968 11.897 9.19891 11.897 9C11.897 8.80109 11.818 8.61032 11.6774 8.46967C11.5367 8.32902 11.346 8.25 11.147 8.25H8.14704C7.94813 8.25 7.75736 8.32902 7.61671 8.46967C7.47606 8.61032 7.39704 8.80109 7.39704 9C7.39704 9.19891 7.47606 9.38968 7.61671 9.53033C7.75736 9.67098 7.94813 9.75 8.14704 9.75ZM14.897 2.25H4.39704C3.86938 2.25409 3.35995 2.44351 2.95779 2.78514C2.55564 3.12676 2.28635 3.59887 2.19699 4.11892C2.10763 4.63897 2.2039 5.17388 2.46896 5.63015C2.73402 6.08642 3.15101 6.43502 3.64704 6.615V13.5C3.64704 14.0967 3.88409 14.669 4.30605 15.091C4.72801 15.5129 5.3003 15.75 5.89704 15.75H13.397C13.9938 15.75 14.5661 15.5129 14.988 15.091C15.41 14.669 15.647 14.0967 15.647 13.5V6.615C16.1431 6.43502 16.5601 6.08642 16.8251 5.63015C17.0902 5.17388 17.1864 4.63897 17.0971 4.11892C17.0077 3.59887 16.7384 3.12676 16.3363 2.78514C15.9341 2.44351 15.4247 2.25409 14.897 2.25ZM14.147 13.5C14.147 13.6989 14.068 13.8897 13.9274 14.0303C13.7867 14.171 13.596 14.25 13.397 14.25H5.89704C5.69813 14.25 5.50736 14.171 5.36671 14.0303C5.22606 13.8897 5.14704 13.6989 5.14704 13.5V6.75H14.147V13.5ZM14.897 5.25H4.39704C4.19813 5.25 4.00736 5.17098 3.86671 5.03033C3.72606 4.88968 3.64704 4.69891 3.64704 4.5C3.64704 4.30109 3.72606 4.11032 3.86671 3.96967C4.00736 3.82902 4.19813 3.75 4.39704 3.75H14.897C15.096 3.75 15.2867 3.82902 15.4274 3.96967C15.568 4.11032 15.647 4.30109 15.647 4.5C15.647 4.69891 15.568 4.88968 15.4274 5.03033C15.2867 5.17098 15.096 5.25 14.897 5.25Z" fill="#0E1D44"/>
</svg>
