<svg width="19" height="18" viewBox="0 0 19 18" fill="none" xmlns="http://www.w3.org/2000/svg">
<path fill-rule="evenodd" clip-rule="evenodd" d="M9.65528 9.4395L14.5835 4.51125C14.7388 4.356 14.9548 4.2765 15.1738 4.2945C15.3928 4.31175 15.593 4.42425 15.722 4.60275C15.722 4.60275 15.7408 4.62975 15.7423 4.63125C16.6258 5.862 17.147 7.37025 17.147 9C17.147 13.1392 13.7863 16.5 9.64703 16.5C5.50778 16.5 2.14703 13.1392 2.14703 9C2.14703 4.86075 5.50778 1.5 9.64703 1.5C10.844 1.5 11.9765 1.78125 12.9808 2.2815C13.352 2.46525 13.5028 2.916 13.3183 3.2865C13.1338 3.657 12.6838 3.8085 12.3133 3.624C11.51 3.22425 10.604 3 9.64703 3C6.33578 3 3.64703 5.68875 3.64703 9C3.64703 12.3112 6.33578 15 9.64703 15C12.9583 15 15.647 12.3112 15.647 9C15.647 8.0055 15.4048 7.0665 14.975 6.24075L10.1863 11.0302C9.89303 11.3235 9.41828 11.3235 9.12503 11.0302L6.87503 8.78025C6.58253 8.48775 6.58253 8.01225 6.87503 7.71975C7.16828 7.42725 7.64303 7.42725 7.93628 7.71975L9.65528 9.4395Z" fill="#0E1D44"/>
</svg>
