<svg width="14" height="14" viewBox="0 0 14 14" fill="none" xmlns="http://www.w3.org/2000/svg">
<path fill-rule="evenodd" clip-rule="evenodd" d="M0 7C0 3.13401 3.13401 4.81131e-06 7 4.81131e-06C8.85692 -0.00131731 10.6382 0.735756 11.9512 2.0488C13.2642 3.36184 14.0013 5.14308 14 7C14 10.866 10.866 14 7 14C3.13401 14 0 10.866 0 7ZM10.1095 10.0812C10.2735 9.90959 10.283 9.64233 10.1316 9.45946L7.65718 7.01992L10.1465 4.53059C10.2344 4.44281 10.2837 4.3237 10.2837 4.1995C10.2837 4.07531 10.2344 3.9562 10.1465 3.86842C10.0596 3.78086 9.9413 3.73162 9.81792 3.73162C9.69454 3.73162 9.57626 3.78086 9.48933 3.86842L7 6.35775L4.51067 3.86842C4.32648 3.75766 4.09053 3.78658 3.93855 3.93856C3.78658 4.09053 3.75765 4.32649 3.86842 4.51067L6.35775 7L3.86842 9.48933C3.75765 9.67352 3.78658 9.90947 3.93855 10.0614C4.09053 10.2134 4.32648 10.2423 4.51067 10.1316L7 7.64225L9.48933 10.1316C9.67889 10.2745 9.94544 10.2529 10.1095 10.0812Z" fill="#071223"/>
</svg>
