<svg width="18" height="18" viewBox="0 0 18 18" fill="none" xmlns="http://www.w3.org/2000/svg">
<path fill-rule="evenodd" clip-rule="evenodd" d="M9.00825 9.4395L13.9365 4.51125C14.0918 4.356 14.3077 4.2765 14.5267 4.2945C14.7457 4.31175 14.946 4.42425 15.075 4.60275C15.075 4.60275 15.0938 4.62975 15.0953 4.63125C15.9788 5.862 16.5 7.37025 16.5 9C16.5 13.1393 13.1393 16.5 9 16.5C4.86075 16.5 1.5 13.1393 1.5 9C1.5 4.86075 4.86075 1.5 9 1.5C10.197 1.5 11.3295 1.78125 12.3337 2.2815C12.705 2.46525 12.8558 2.916 12.6713 3.2865C12.4868 3.657 12.0368 3.8085 11.6663 3.624C10.863 3.22425 9.957 3 9 3C5.68875 3 3 5.68875 3 9C3 12.3112 5.68875 15 9 15C12.3112 15 15 12.3112 15 9C15 8.0055 14.7578 7.0665 14.328 6.24075L9.53925 11.0302C9.246 11.3235 8.77125 11.3235 8.478 11.0302L6.228 8.78025C5.9355 8.48775 5.9355 8.01225 6.228 7.71975C6.52125 7.42725 6.996 7.42725 7.28925 7.71975L9.00825 9.4395Z" fill="#525256"/>
</svg>
