<svg width="15" height="15" viewBox="0 0 15 15" fill="none" xmlns="http://www.w3.org/2000/svg">
<g clip-path="url(#clip0_1978_219233)">
<path d="M13.6111 4.51255L9.02779 0.572264C8.60764 0.203739 8.06372 0 7.50002 0C6.93633 0 6.39241 0.203739 5.97226 0.572264L1.38896 4.51255C1.14632 4.72535 0.952702 4.9864 0.820987 5.27832C0.689272 5.57023 0.622485 5.88632 0.625072 6.20552V12.7527C0.625072 13.3487 0.866514 13.9203 1.29628 14.3418C1.72605 14.7632 2.30894 15 2.91672 15H12.0833C12.6911 15 13.274 14.7632 13.7038 14.3418C14.1335 13.9203 14.375 13.3487 14.375 12.7527V6.19803C14.3765 5.88009 14.3092 5.56544 14.1775 5.2749C14.0458 4.98435 13.8528 4.72451 13.6111 4.51255ZM9.02779 13.5018H5.97226V9.75628C5.97226 9.5576 6.05274 9.36706 6.19599 9.22658C6.33925 9.08609 6.53355 9.00717 6.73614 9.00717H8.26391C8.4665 9.00717 8.6608 9.08609 8.80405 9.22658C8.94731 9.36706 9.02779 9.5576 9.02779 9.75628V13.5018ZM12.8472 12.7527C12.8472 12.9514 12.7667 13.1419 12.6235 13.2824C12.4802 13.4229 12.2859 13.5018 12.0833 13.5018H10.5556V9.75628C10.5556 9.16025 10.3141 8.58864 9.88435 8.16719C9.45458 7.74573 8.87169 7.50896 8.26391 7.50896H6.73614C6.12836 7.50896 5.54547 7.74573 5.1157 8.16719C4.68593 8.58864 4.44449 9.16025 4.44449 9.75628V13.5018H2.91672C2.71413 13.5018 2.51983 13.4229 2.37658 13.2824C2.23332 13.1419 2.15284 12.9514 2.15284 12.7527V6.19803C2.15298 6.09167 2.17621 5.98656 2.22099 5.88969C2.26577 5.79281 2.33108 5.7064 2.41256 5.63621L6.99586 1.70341C7.13526 1.58332 7.31447 1.51708 7.50002 1.51708C7.68558 1.51708 7.86479 1.58332 8.00419 1.70341L12.5875 5.63621C12.669 5.7064 12.7343 5.79281 12.7791 5.88969C12.8238 5.98656 12.8471 6.09167 12.8472 6.19803V12.7527Z" fill="#066DE6"/>
</g>
<defs>
<clipPath id="clip0_1978_219233">
<rect width="15" height="15" fill="white"/>
</clipPath>
</defs>
</svg>
