<svg width="15" height="15" viewBox="0 0 15 15" fill="none" xmlns="http://www.w3.org/2000/svg">
<path fill-rule="evenodd" clip-rule="evenodd" d="M10.2097 7.49985C10.2097 8.99672 8.99623 10.2102 7.49936 10.2102C6.00251 10.2102 4.78906 8.99672 4.78906 7.49985C4.78906 6.003 6.00251 4.78955 7.49936 4.78955C8.99623 4.78955 10.2097 6.003 10.2097 7.49985ZM8.78526 7.49985C8.78526 8.21003 8.20954 8.78575 7.49936 8.78575C6.78918 8.78575 6.21348 8.21003 6.21348 7.49985C6.21348 6.78967 6.78918 6.21396 7.49936 6.21396C8.20954 6.21396 8.78526 6.78967 8.78526 7.49985Z" fill="#0A5AE3"/>
<path fill-rule="evenodd" clip-rule="evenodd" d="M7.98784 0H7.22187C6.24572 0 5.4544 0.791325 5.4544 1.76749V2.36499L5.01713 1.92772C4.32688 1.23749 3.20777 1.23749 2.51752 1.92772L1.97591 2.46935C1.28566 3.15958 1.28566 4.2787 1.97591 4.96893L2.37567 5.36869H1.76749C0.791325 5.36869 0 6.16004 0 7.13618V7.90214C0 8.87831 0.791325 9.66963 1.76749 9.66963H2.3372L1.92399 10.0828C1.23374 10.7731 1.23374 11.8922 1.92399 12.5824L2.4656 13.1241C3.15585 13.8143 4.27496 13.8143 4.96521 13.1241L5.4544 12.6349V13.2325C5.4544 14.2087 6.24572 15 7.22187 15H7.98784C8.96399 15 9.75532 14.2087 9.75532 13.2325V12.7484L10.0829 13.076C10.7732 13.7662 11.8923 13.7662 12.5825 13.076L13.1241 12.5343C13.8144 11.8441 13.8144 10.725 13.1241 10.0347L12.759 9.66963H13.2325C14.2087 9.66963 15 8.87831 15 7.90214V7.13618C15 6.16004 14.2087 5.36869 13.2325 5.36869H12.7206L13.0722 5.01705C13.7625 4.3268 13.7625 3.2077 13.0722 2.51745L12.5306 1.97584C11.8403 1.28559 10.7212 1.28559 10.031 1.97584L9.75532 2.25151V1.76749C9.75532 0.791325 8.96399 0 7.98784 0ZM6.6943 1.76749C6.6943 1.47611 6.93051 1.2399 7.22187 1.2399H7.98784C8.2792 1.2399 8.51541 1.47611 8.51541 1.76749V3.16866C8.51541 3.41494 8.68717 3.62504 8.9205 3.70381C9.06322 3.752 9.20238 3.80769 9.33748 3.8704C9.55592 3.97181 9.81853 3.94179 9.98883 3.7715L10.9077 2.85259C11.1138 2.64655 11.4478 2.64655 11.6539 2.85259L12.1955 3.3942C12.4015 3.60022 12.4015 3.93428 12.1955 4.14032L11.3276 5.0082C11.1499 5.18583 11.1257 5.46244 11.2414 5.68544C11.328 5.85259 11.4031 6.02645 11.4656 6.20605C11.5462 6.43789 11.7557 6.6086 12.0011 6.6086H13.2325C13.5239 6.6086 13.7601 6.84481 13.7601 7.13618V7.90214C13.7601 8.19352 13.5239 8.42973 13.2325 8.42973H11.9897C11.746 8.42973 11.5375 8.59818 11.4556 8.8278C11.3956 8.99622 11.3245 9.15953 11.2431 9.31688C11.1277 9.53981 11.1521 9.81615 11.3295 9.99363L12.2474 10.9115C12.4534 11.1175 12.4534 11.4515 12.2474 11.6576L11.7058 12.1992C11.4997 12.4052 11.1657 12.4052 10.9596 12.1992L9.99272 11.2323C9.82229 11.0618 9.5594 11.0319 9.34087 11.1336C9.20472 11.197 9.06442 11.2532 8.9205 11.3018C8.68717 11.3806 8.51541 11.5907 8.51541 11.837V13.2325C8.51541 13.5239 8.2792 13.7601 7.98784 13.7601H7.22187C6.93051 13.7601 6.6943 13.5239 6.6943 13.2325V11.8502C6.6943 11.6019 6.5199 11.3907 6.28399 11.3134C6.11245 11.2572 5.94595 11.1902 5.78535 11.1132C5.56571 11.0078 5.29937 11.0364 5.12713 11.2086L4.08846 12.2473C3.88243 12.4533 3.54838 12.4533 3.34235 12.2473L2.80074 11.7057C2.5947 11.4997 2.5947 11.1656 2.80074 10.9596L3.8151 9.94521C3.99074 9.7696 4.01655 9.4968 3.90505 9.27487C3.83254 9.13051 3.76861 8.98128 3.7139 8.82779C3.63207 8.59818 3.42357 8.42973 3.17982 8.42973H1.76749C1.47611 8.42973 1.2399 8.19352 1.2399 7.90214V7.13618C1.2399 6.84481 1.47611 6.6086 1.76749 6.6086H3.1684C3.41385 6.6086 3.62333 6.43789 3.70396 6.20605C3.76121 6.04145 3.82905 5.88165 3.90671 5.72744C4.01851 5.50541 3.99281 5.23236 3.81704 5.05658L2.85265 4.0922C2.64662 3.88616 2.64662 3.55212 2.85265 3.34608L3.39426 2.80447C3.6003 2.59843 3.93433 2.59843 4.14038 2.80447L5.13099 3.79508C5.3031 3.9672 5.56916 3.99587 5.78873 3.89083C5.94827 3.8145 6.11365 3.748 6.28399 3.69218C6.5199 3.61487 6.6943 3.40367 6.6943 3.15541V1.76749Z" fill="#0A5AE3"/>
</svg>
