<svg width="15" height="15" viewBox="0 0 15 15" fill="none" xmlns="http://www.w3.org/2000/svg">
<g clip-path="url(#clip0_1978_219239)">
<path d="M14.7054 8.25371C14.5972 8.16169 14.4661 8.10279 14.327 8.0837C14.1878 8.06461 14.0463 8.08611 13.9185 8.14574C13.126 8.5189 12.2643 8.71096 11.3928 8.7087C9.78064 8.70669 8.23461 8.04892 7.09183 6.87878C5.94904 5.70865 5.30219 4.12107 5.2923 2.46219C5.29571 1.94229 5.3586 1.42462 5.47966 0.919847C5.50535 0.785307 5.49571 0.646152 5.45175 0.516719C5.40778 0.387286 5.33107 0.272255 5.22952 0.183477C5.12798 0.0946997 5.00526 0.0353859 4.87403 0.0116467C4.74279 -0.0120925 4.60778 0.000601301 4.48289 0.0484204C3.308 0.592027 2.28668 1.43403 1.51489 2.49534C0.743099 3.55665 0.246164 4.80242 0.0707703 6.11562C-0.104624 7.42882 0.04728 8.76634 0.512211 10.0025C0.977143 11.2387 1.73984 12.333 2.72866 13.1826C3.71747 14.0322 4.89994 14.6092 6.16499 14.8594C7.43004 15.1096 8.73613 15.0248 9.96058 14.613C11.185 14.2011 12.2876 13.4758 13.1648 12.505C14.042 11.5342 14.665 10.35 14.9752 9.06344C15.013 8.91614 15.0075 8.76062 14.9595 8.61652C14.9115 8.47241 14.823 8.34616 14.7054 8.25371ZM7.58561 13.4129C6.32786 13.4037 5.10359 12.9948 4.08043 12.242C3.05728 11.4892 2.28526 10.4295 1.87007 9.20775C1.45489 7.98604 1.41685 6.66215 1.76115 5.41733C2.10545 4.17252 2.81526 3.06764 3.7934 2.25398V2.46219C3.79538 4.53548 4.59667 6.52327 6.02141 7.9893C7.44614 9.45534 9.37793 10.2799 11.3928 10.2819C11.9218 10.2839 12.4495 10.227 12.9667 10.1122C12.4495 11.119 11.675 11.9614 10.7267 12.5485C9.77838 13.1356 8.69231 13.4451 7.58561 13.4437V13.4129Z" fill="#0A5AE3"/>
</g>
<defs>
<clipPath id="clip0_1978_219239">
<rect width="15" height="15" fill="white"/>
</clipPath>
</defs>
</svg>
