<svg width="15" height="15" viewBox="0 0 15 15" fill="none" xmlns="http://www.w3.org/2000/svg">
<g clip-path="url(#clip0_1978_219242)">
<path d="M7.94436 8.25003L6.21896 9.96752C6.14865 10.0372 6.09284 10.1202 6.05475 10.2116C6.01667 10.303 5.99706 10.401 5.99706 10.5C5.99706 10.599 6.01667 10.6971 6.05475 10.7885C6.09284 10.8798 6.14865 10.9628 6.21896 11.0325C6.2887 11.1028 6.37167 11.1586 6.46308 11.1967C6.5545 11.2348 6.65255 11.2544 6.75158 11.2544C6.85062 11.2544 6.94867 11.2348 7.04008 11.1967C7.1315 11.1586 7.21447 11.1028 7.28421 11.0325L10.2849 8.03253C10.3532 7.96121 10.4067 7.8771 10.4425 7.78504C10.5175 7.60244 10.5175 7.39763 10.4425 7.21504C10.4067 7.12298 10.3532 7.03887 10.2849 6.96754L7.28421 3.96755C7.21426 3.89763 7.13123 3.84216 7.03984 3.80431C6.94845 3.76647 6.8505 3.74699 6.75158 3.74699C6.65267 3.74699 6.55472 3.76647 6.46333 3.80431C6.37194 3.84216 6.28891 3.89763 6.21896 3.96755C6.14901 4.03748 6.09353 4.1205 6.05568 4.21187C6.01782 4.30323 5.99834 4.40116 5.99834 4.50005C5.99834 4.59895 6.01782 4.69687 6.05568 4.78824C6.09353 4.8796 6.14901 4.96262 6.21896 5.03255L7.94436 6.75004H0.750176C0.551217 6.75004 0.360407 6.82906 0.219721 6.96971C0.0790361 7.11036 0 7.30113 0 7.50004C0 7.69895 0.0790361 7.88971 0.219721 8.03036C0.360407 8.17102 0.551217 8.25003 0.750176 8.25003H7.94436ZM7.50176 7.47699e-05C6.09975 -0.00618304 4.72404 0.380482 3.53068 1.11621C2.33732 1.85194 1.37406 2.90729 0.750176 4.16255C0.660644 4.34157 0.645913 4.54882 0.709221 4.7387C0.772529 4.92858 0.908692 5.08554 1.08776 5.17505C1.26682 5.26456 1.47411 5.27929 1.66404 5.21599C1.85396 5.1527 2.01096 5.01657 2.10049 4.83755C2.57475 3.88005 3.29615 3.06652 4.19015 2.48105C5.08414 1.89558 6.1183 1.55941 7.18575 1.50726C8.2532 1.45512 9.31522 1.6889 10.262 2.18445C11.2089 2.67999 12.0062 3.41933 12.5715 4.32605C13.1369 5.23277 13.4498 6.27398 13.478 7.34208C13.5061 8.41017 13.2485 9.46641 12.7316 10.4016C12.2148 11.3369 11.4575 12.1171 10.5381 12.6618C9.61871 13.2065 8.57048 13.4959 7.50176 13.5C6.38316 13.5048 5.28586 13.1943 4.33579 12.6039C3.38572 12.0136 2.62138 11.1674 2.1305 10.1625C2.04097 9.9835 1.88397 9.84737 1.69405 9.78408C1.50412 9.72079 1.29683 9.73552 1.11776 9.82503C0.938699 9.91454 0.802536 10.0715 0.739228 10.2614C0.67592 10.4513 0.690652 10.6585 0.780183 10.8375C1.37494 12.0341 2.27868 13.0502 3.3979 13.7805C4.51713 14.5109 5.8112 14.929 7.14627 14.9917C8.48134 15.0544 9.80892 14.7594 10.9917 14.1371C12.1745 13.5149 13.1695 12.588 13.8738 11.4524C14.5781 10.3168 14.9662 9.01363 14.9979 7.67779C15.0296 6.34194 14.7037 5.02189 14.054 3.85418C13.4043 2.68646 12.4543 1.71349 11.3024 1.0359C10.1504 0.358307 8.8383 0.000702106 7.50176 7.47699e-05Z" fill="#0A5AE3"/>
</g>
<defs>
<clipPath id="clip0_1978_219242">
<rect width="15" height="15" fill="white"/>
</clipPath>
</defs>
</svg>
