<svg width="17" height="16" viewBox="0 0 17 16" fill="none" xmlns="http://www.w3.org/2000/svg">
<path fill-rule="evenodd" clip-rule="evenodd" d="M4.75874 6.78894C5.39633 7.43981 5.39633 8.49509 4.75874 9.14596C4.12114 9.79683 3.0874 9.79683 2.44981 9.14596C1.81222 8.49509 1.81222 7.43981 2.44981 6.78894C3.0874 6.13806 4.12114 6.13806 4.75874 6.78894ZM10.1261 6.78894C10.7637 7.43981 10.7637 8.49509 10.1261 9.14596C9.48849 9.79683 8.45475 9.79683 7.81715 9.14596C7.17956 8.49509 7.17956 7.43981 7.81715 6.78894C8.45474 6.13806 9.48848 6.13806 10.1261 6.78894ZM15.4887 9.14596C16.1263 8.49509 16.1263 7.43981 15.4887 6.78894C14.8511 6.13806 13.8174 6.13806 13.1798 6.78894C12.5422 7.43981 12.5422 8.49509 13.1798 9.14596C13.8174 9.79683 14.8511 9.79683 15.4887 9.14596Z" fill="#0E1D44"/>
<mask id="mask0_1213_57845" style="mask-type:luminance" maskUnits="userSpaceOnUse" x="1" y="6" width="15" height="4">
<path fill-rule="evenodd" clip-rule="evenodd" d="M4.75874 6.78894C5.39633 7.43981 5.39633 8.49509 4.75874 9.14596C4.12114 9.79683 3.0874 9.79683 2.44981 9.14596C1.81222 8.49509 1.81222 7.43981 2.44981 6.78894C3.0874 6.13806 4.12114 6.13806 4.75874 6.78894ZM10.1261 6.78894C10.7637 7.43981 10.7637 8.49509 10.1261 9.14596C9.48849 9.79683 8.45475 9.79683 7.81715 9.14596C7.17956 8.49509 7.17956 7.43981 7.81715 6.78894C8.45474 6.13806 9.48848 6.13806 10.1261 6.78894ZM15.4887 9.14596C16.1263 8.49509 16.1263 7.43981 15.4887 6.78894C14.8511 6.13806 13.8174 6.13806 13.1798 6.78894C12.5422 7.43981 12.5422 8.49509 13.1798 9.14596C13.8174 9.79683 14.8511 9.79683 15.4887 9.14596Z" fill="white"/>
</mask>
<g mask="url(#mask0_1213_57845)">
</g>
</svg>
