<svg width="16" height="16" viewBox="0 0 16 16" fill="none" xmlns="http://www.w3.org/2000/svg">
<g opacity="0.4">
<path fill-rule="evenodd" clip-rule="evenodd" d="M10.2803 0.768995C11.3056 -0.256331 12.968 -0.256332 13.9933 0.768994L15.231 2.00667C16.2563 3.032 16.2563 4.69438 15.231 5.71971L6.13579 14.8149C6.01362 14.9371 5.85801 15.0204 5.68858 15.0543L1.04729 15.9825C0.434917 16.105 -0.104993 15.5651 0.0174817 14.9527L0.94574 10.3114C0.979625 10.142 1.0629 9.98638 1.18508 9.86421L10.2803 0.768995ZM13.0651 1.69725L14.3027 2.93493C14.8154 3.44759 14.8154 4.27879 14.3027 4.79145L12.9103 6.18386L9.81614 3.08967L11.2086 1.69725C11.7212 1.18459 12.5524 1.18459 13.0651 1.69725ZM8.88788 4.01793L2.20702 10.6988L1.43347 14.5665L5.30122 13.793L11.9821 7.11212L8.88788 4.01793Z" fill="#0E1D44"/>
</g>
</svg>
