<svg width="40" height="40" viewBox="0 0 40 40" fill="none" xmlns="http://www.w3.org/2000/svg">
<rect width="40" height="40" rx="10" fill="#F9896B"/>
<path d="M20.3672 21.6797V22.9764C20.8392 22.8964 21.0752 22.6917 21.0752 22.3617C21.0752 22.0104 20.6885 21.827 20.3672 21.6797Z" fill="white"/>
<path d="M18.9824 19.2061C18.9824 19.5741 19.3151 19.7387 19.6544 19.8881V18.6641C19.2064 18.7301 18.9824 18.9107 18.9824 19.2061Z" fill="white"/>
<path d="M24.0007 14L22.0007 12L20.0007 14L18.0007 12L16.0007 14L13.334 12V27.3333C13.334 27.702 13.6327 28 14.0007 28H26.0007C26.3687 28 26.6673 27.702 26.6673 27.3333V12L24.0007 14ZM20.368 24.2187V25.2867H19.6547V24.24C18.8073 24.2227 18.064 24.0733 17.4253 23.792V22.4173C18.0253 22.714 18.9773 22.974 19.6547 23.016V21.4013C18.462 20.9387 17.4153 20.49 17.4153 19.2033C17.4153 18.0347 18.4873 17.4853 19.6547 17.37V16.5727H20.368V17.3487C21.1627 17.3833 21.882 17.5433 22.524 17.828L22.0347 19.0467C21.4933 18.8247 20.9373 18.6893 20.368 18.6407V20.1773C21.6333 20.664 22.644 21.1073 22.644 22.2867C22.644 23.53 21.6113 24.1047 20.368 24.2187Z" fill="white"/>
</svg>
