<svg width="40" height="40" viewBox="0 0 40 40" fill="none" xmlns="http://www.w3.org/2000/svg">
<rect width="40" height="40" rx="10" fill="#0B57DB"/>
<g clip-path="url(#clip0_2311_154329)">
<path d="M20.2764 22.6666L21.6097 21.3333L20.667 20.3906L19.3337 21.724L18.2764 20.6666L19.6097 19.3333L18.667 18.3906L17.3337 19.724L16.4477 18.8386C16.3227 18.7136 16.1532 18.6434 15.9764 18.6434C15.7996 18.6434 15.6301 18.7136 15.505 18.8386L14.505 19.8386C13.8363 20.5064 13.4262 21.3898 13.3476 22.3316C13.269 23.2734 13.527 24.2125 14.0757 24.982L12.1957 26.862C12.132 26.9235 12.0813 26.997 12.0463 27.0784C12.0114 27.1597 11.993 27.2472 11.9922 27.3357C11.9914 27.4242 12.0083 27.512 12.0418 27.5939C12.0754 27.6759 12.1249 27.7503 12.1874 27.8129C12.25 27.8755 12.3245 27.925 12.4064 27.9585C12.4883 27.992 12.5761 28.0089 12.6646 28.0081C12.7532 28.0074 12.8406 27.989 12.922 27.954C13.0033 27.9191 13.0769 27.8683 13.1384 27.8046L15.0184 25.9246C15.788 26.4734 16.7273 26.7314 17.6692 26.6527C18.6112 26.574 19.4946 26.1636 20.1624 25.4946L21.1624 24.4946C21.2874 24.3696 21.3576 24.2001 21.3576 24.0233C21.3576 23.8465 21.2874 23.677 21.1624 23.552L20.2764 22.6666Z" fill="white"/>
<path d="M23.5524 21.1617C23.6775 21.2867 23.847 21.3569 24.0238 21.3569C24.2005 21.3569 24.3701 21.2867 24.4951 21.1617L25.4951 20.1617C26.1638 19.4939 26.5739 18.6105 26.6525 17.6687C26.7312 16.727 26.4732 15.7878 25.9244 15.0184L27.8044 13.1384C27.8681 13.0769 27.9189 13.0033 27.9538 12.922C27.9888 12.8406 28.0072 12.7532 28.0079 12.6646C28.0087 12.5761 27.9918 12.4883 27.9583 12.4064C27.9248 12.3245 27.8753 12.25 27.8127 12.1874C27.7501 12.1249 27.6757 12.0754 27.5937 12.0418C27.5118 12.0083 27.424 11.9914 27.3355 11.9922C27.247 11.993 27.1595 12.0114 27.0782 12.0463C26.9968 12.0813 26.9233 12.132 26.8618 12.1957L24.9818 14.0757C24.2122 13.5269 23.2729 13.2689 22.3309 13.3476C21.389 13.4264 20.5055 13.8367 19.8378 14.5057L18.8378 15.5057C18.7128 15.6307 18.6426 15.8003 18.6426 15.977C18.6426 16.1538 18.7128 16.3234 18.8378 16.4484L23.5524 21.1617Z" fill="white"/>
</g>
<defs>
<clipPath id="clip0_2311_154329">
<rect width="16" height="16" fill="white" transform="translate(12 12)"/>
</clipPath>
</defs>
</svg>
