<svg width="40" height="40" viewBox="0 0 40 40" fill="none" xmlns="http://www.w3.org/2000/svg">
<rect width="40" height="40" rx="10" fill="#FFBC65"/>
<path d="M26.0007 12H14.0007C13.6327 12 13.334 12.298 13.334 12.6667V28L16.0007 26L18.0007 28L20.0007 26L22.0007 28L24.0007 26L26.6673 28V12.6667C26.6673 12.298 26.3687 12 26.0007 12ZM20.6673 22.6667H16.0007V21.3333H20.6673V22.6667ZM20.6673 20H16.0007V18.6667H20.6673V20ZM20.6673 17.3333H16.0007V16H20.6673V17.3333ZM24.0007 22.6667H22.0007V21.3333H24.0007V22.6667ZM24.0007 20H22.0007V18.6667H24.0007V20ZM24.0007 17.3333H22.0007V16H24.0007V17.3333Z" fill="white"/>
</svg>
