<svg width="282" height="165" viewBox="0 0 282 165" fill="none" xmlns="http://www.w3.org/2000/svg">
<line x1="279.5" y1="8.25" x2="25.498" y2="8.25" stroke="#DCE3EB" stroke-linecap="round" stroke-dasharray="1.89 2.53"/>
<line x1="279.5" y1="50.1016" x2="25.498" y2="50.1016" stroke="#DCE3EB" stroke-linecap="round" stroke-dasharray="1.89 2.53"/>
<line x1="279.5" y1="91.9531" x2="25.498" y2="91.9531" stroke="#DCE3EB" stroke-linecap="round" stroke-dasharray="1.89 2.53"/>
<line x1="279.5" y1="133.797" x2="25.498" y2="133.797" stroke="#DCE3EB" stroke-linecap="round" stroke-dasharray="1.89 2.53"/>
<path opacity="0.4" d="M4.43146 128.243V135.516H3.33061V129.344H3.288L1.54794 130.48V129.429L3.36257 128.243H4.43146ZM8.93075 135.636C8.36967 135.634 7.89027 135.486 7.49254 135.192C7.09482 134.899 6.7906 134.472 6.5799 133.911C6.3692 133.349 6.26385 132.674 6.26385 131.883C6.26385 131.094 6.3692 130.421 6.5799 129.862C6.79297 129.304 7.09837 128.877 7.49609 128.584C7.89619 128.29 8.37441 128.143 8.93075 128.143C9.4871 128.143 9.96413 128.291 10.3619 128.587C10.7596 128.881 11.0638 129.307 11.2745 129.866C11.4876 130.422 11.5941 131.094 11.5941 131.883C11.5941 132.676 11.4888 133.353 11.2781 133.914C11.0674 134.473 10.7631 134.9 10.3654 135.196C9.96768 135.49 9.48947 135.636 8.93075 135.636ZM8.93075 134.688C9.42318 134.688 9.80788 134.448 10.0849 133.967C10.3642 133.487 10.5039 132.792 10.5039 131.883C10.5039 131.279 10.44 130.769 10.3121 130.352C10.1867 129.933 10.0056 129.616 9.76882 129.401C9.53445 129.183 9.25509 129.074 8.93075 129.074C8.4407 129.074 8.05599 129.315 7.77663 129.798C7.49728 130.281 7.35642 130.976 7.35405 131.883C7.35405 132.489 7.41679 133.001 7.54226 133.42C7.6701 133.837 7.85121 134.153 8.08558 134.369C8.31996 134.582 8.60168 134.688 8.93075 134.688Z" fill="#0E1D44"/>
<path opacity="0.4" d="M0.699574 94.6406V93.8452L3.16051 91.2955C3.4233 91.0185 3.63991 90.7758 3.81037 90.5675C3.98319 90.3568 4.11222 90.1567 4.19744 89.9673C4.28267 89.7779 4.32528 89.5767 4.32528 89.3636C4.32528 89.1222 4.26847 88.9138 4.15483 88.7386C4.04119 88.5611 3.88613 88.425 3.68963 88.3303C3.49313 88.2332 3.27178 88.1847 3.02557 88.1847C2.76515 88.1847 2.53788 88.2379 2.34375 88.3445C2.14962 88.451 2.00047 88.6013 1.89631 88.7955C1.79214 88.9896 1.74006 89.2169 1.74006 89.4773H0.692472C0.692472 89.0346 0.794271 88.6475 0.997869 88.3161C1.20147 87.9846 1.48082 87.7277 1.83594 87.5455C2.19105 87.3608 2.5947 87.2685 3.04688 87.2685C3.50379 87.2685 3.90625 87.3596 4.25426 87.5419C4.60464 87.7218 4.87808 87.968 5.07457 88.2805C5.27107 88.5907 5.36932 88.9411 5.36932 89.3317C5.36932 89.6016 5.31842 89.8655 5.21662 90.1236C5.11719 90.3816 4.94318 90.6693 4.6946 90.9865C4.44602 91.3014 4.10038 91.6837 3.65767 92.1335L2.21236 93.6463V93.6996H5.48651V94.6406H0.699574ZM9.36435 94.7614C8.80327 94.759 8.32386 94.611 7.92614 94.3175C7.52841 94.0239 7.2242 93.5966 7.01349 93.0355C6.80279 92.4744 6.69744 91.7985 6.69744 91.0078C6.69744 90.2195 6.80279 89.5459 7.01349 88.9872C7.22656 88.4285 7.53196 88.0024 7.92969 87.7088C8.32978 87.4152 8.808 87.2685 9.36435 87.2685C9.92069 87.2685 10.3977 87.4164 10.7955 87.7124C11.1932 88.0059 11.4974 88.4321 11.7081 88.9908C11.9212 89.5471 12.0277 90.2195 12.0277 91.0078C12.0277 91.8009 11.9223 92.478 11.7116 93.0391C11.5009 93.5978 11.1967 94.0251 10.799 94.321C10.4013 94.6146 9.92306 94.7614 9.36435 94.7614ZM9.36435 93.8132C9.85677 93.8132 10.2415 93.5729 10.5185 93.0923C10.7978 92.6117 10.9375 91.9169 10.9375 91.0078C10.9375 90.4041 10.8736 89.8939 10.7457 89.4773C10.6203 89.0582 10.4392 88.741 10.2024 88.5256C9.96804 88.3078 9.68868 88.1989 9.36435 88.1989C8.87429 88.1989 8.48958 88.4403 8.21023 88.9233C7.93087 89.4062 7.79001 90.1011 7.78764 91.0078C7.78764 91.6139 7.85038 92.1264 7.97585 92.5455C8.10369 92.9621 8.2848 93.2782 8.51918 93.4936C8.75355 93.7067 9.03527 93.8132 9.36435 93.8132Z" fill="#0E1D44"/>
<path opacity="0.4" d="M3.23153 53.8572C2.74384 53.8572 2.30824 53.7732 1.92472 53.6051C1.54356 53.437 1.24171 53.2038 1.01918 52.9055C0.799006 52.6049 0.680634 52.2569 0.664062 51.8615H1.77912C1.79332 52.0769 1.86553 52.264 1.99574 52.4226C2.12831 52.5788 2.30114 52.6996 2.5142 52.7848C2.72727 52.87 2.96402 52.9126 3.22443 52.9126C3.51089 52.9126 3.7642 52.8629 3.98438 52.7635C4.20691 52.6641 4.38092 52.5256 4.50639 52.348C4.63187 52.1681 4.6946 51.9609 4.6946 51.7266C4.6946 51.4827 4.63187 51.2685 4.50639 51.0838C4.38329 50.8968 4.20218 50.75 3.96307 50.6435C3.72633 50.5369 3.43987 50.4837 3.10369 50.4837H2.48935V49.5888H3.10369C3.37358 49.5888 3.61032 49.5402 3.81392 49.4432C4.01989 49.3461 4.18087 49.2112 4.29688 49.0384C4.41288 48.8632 4.47088 48.6584 4.47088 48.424C4.47088 48.1991 4.41998 48.0038 4.31818 47.8381C4.21875 47.67 4.0767 47.5386 3.89205 47.4439C3.70975 47.3492 3.49432 47.3018 3.24574 47.3018C3.009 47.3018 2.78764 47.3456 2.58168 47.4332C2.37808 47.5185 2.21236 47.6416 2.08452 47.8026C1.95668 47.9612 1.88802 48.1518 1.87855 48.3743H0.816761C0.828599 47.9813 0.944602 47.6357 1.16477 47.3374C1.38731 47.0391 1.68087 46.8059 2.04545 46.6378C2.41004 46.4697 2.81487 46.3857 3.25994 46.3857C3.72633 46.3857 4.12879 46.4768 4.46733 46.6591C4.80824 46.839 5.07102 47.0793 5.25568 47.38C5.44271 47.6806 5.53504 48.0097 5.53267 48.3672C5.53504 48.7744 5.4214 49.12 5.19176 49.4041C4.96449 49.6882 4.66146 49.8788 4.28267 49.9759V50.0327C4.76563 50.1061 5.13968 50.2978 5.40483 50.608C5.67235 50.9181 5.80492 51.3028 5.80256 51.7621C5.80492 52.1622 5.69366 52.5208 5.46875 52.8381C5.24621 53.1553 4.942 53.4051 4.55611 53.5874C4.17022 53.7673 3.72869 53.8572 3.23153 53.8572ZM9.67685 53.8786C9.11577 53.8762 8.63636 53.7282 8.23864 53.4347C7.84091 53.1411 7.5367 52.7138 7.32599 52.1527C7.11529 51.5916 7.00994 50.9157 7.00994 50.125C7.00994 49.3366 7.11529 48.6631 7.32599 48.1044C7.53906 47.5457 7.84446 47.1196 8.24219 46.826C8.64228 46.5324 9.1205 46.3857 9.67685 46.3857C10.2332 46.3857 10.7102 46.5336 11.108 46.8295C11.5057 47.1231 11.8099 47.5492 12.0206 48.108C12.2337 48.6643 12.3402 49.3366 12.3402 50.125C12.3402 50.9181 12.2348 51.5952 12.0241 52.1562C11.8134 52.715 11.5092 53.1423 11.1115 53.4382C10.7138 53.7318 10.2356 53.8786 9.67685 53.8786ZM9.67685 52.9304C10.1693 52.9304 10.554 52.6901 10.831 52.2095C11.1103 51.7289 11.25 51.0341 11.25 50.125C11.25 49.5213 11.1861 49.0111 11.0582 48.5945C10.9328 48.1754 10.7517 47.8582 10.5149 47.6428C10.2805 47.425 10.0012 47.3161 9.67685 47.3161C9.18679 47.3161 8.80208 47.5575 8.52273 48.0405C8.24337 48.5234 8.10251 49.2183 8.10014 50.125C8.10014 50.7311 8.16288 51.2436 8.28835 51.6626C8.41619 52.0793 8.5973 52.3954 8.83168 52.6108C9.06605 52.8239 9.34777 52.9304 9.67685 52.9304Z" fill="#0E1D44"/>
<path opacity="0.4" d="M0.546875 9.51705V8.62926L3.68963 3.66477H4.3892V4.97159H3.94531L1.69744 8.52983V8.58665H6.00497V9.51705H0.546875ZM3.99503 10.9375V9.24716L4.00213 8.84233V3.66477H5.04261V10.9375H3.99503ZM9.7745 11.0582C9.21342 11.0559 8.73402 10.9079 8.33629 10.6143C7.93857 10.3208 7.63435 9.89347 7.42365 9.33239C7.21295 8.77131 7.1076 8.09541 7.1076 7.30469C7.1076 6.51634 7.21295 5.8428 7.42365 5.28409C7.63672 4.72538 7.94212 4.29924 8.33984 4.00568C8.73994 3.71212 9.21816 3.56534 9.7745 3.56534C10.3308 3.56534 10.8079 3.7133 11.2056 4.00923C11.6033 4.30279 11.9076 4.72893 12.1183 5.28764C12.3313 5.84399 12.4379 6.51634 12.4379 7.30469C12.4379 8.09777 12.3325 8.77486 12.1218 9.33594C11.9111 9.89465 11.6069 10.322 11.2092 10.6179C10.8114 10.9115 10.3332 11.0582 9.7745 11.0582ZM9.7745 10.1101C10.2669 10.1101 10.6516 9.86979 10.9286 9.3892C11.208 8.90862 11.3477 8.21378 11.3477 7.30469C11.3477 6.70099 11.2837 6.19081 11.1559 5.77415C11.0304 5.35511 10.8493 5.03788 10.6126 4.82244C10.3782 4.60464 10.0988 4.49574 9.7745 4.49574C9.28445 4.49574 8.89974 4.73722 8.62038 5.22017C8.34103 5.70312 8.20017 6.39796 8.1978 7.30469C8.1978 7.91075 8.26054 8.4233 8.38601 8.84233C8.51385 9.259 8.69496 9.57505 8.92933 9.79048C9.16371 10.0036 9.44543 10.1101 9.7745 10.1101Z" fill="#0E1D44"/>
<path opacity="0.4" d="M24.8104 155.329H25.8615L28.3331 161.366H28.4183L30.8899 155.329H31.9411V162.602H31.1172V157.076H31.0462L28.7734 162.602H27.978L25.7053 157.076H25.6342V162.602H24.8104V155.329ZM35.1983 162.729C34.8527 162.729 34.539 162.664 34.2573 162.534C33.9756 162.402 33.7518 162.211 33.5861 161.962C33.4204 161.711 33.3375 161.408 33.3375 161.053C33.3375 160.741 33.3991 160.487 33.5222 160.293C33.6453 160.097 33.8098 159.943 34.0158 159.832C34.2218 159.72 34.449 159.638 34.6976 159.583C34.9486 159.526 35.2007 159.481 35.454 159.448C35.7855 159.406 36.0542 159.374 36.2601 159.352C36.4685 159.329 36.62 159.29 36.7147 159.235C36.8117 159.181 36.8603 159.086 36.8603 158.951V158.923C36.8603 158.572 36.7644 158.3 36.5726 158.106C36.3832 157.912 36.0956 157.815 35.7097 157.815C35.3096 157.815 34.9959 157.902 34.7686 158.077C34.5414 158.253 34.3816 158.44 34.2892 158.638L33.4938 158.354C33.6358 158.023 33.8252 157.765 34.062 157.58C34.3011 157.393 34.5615 157.263 34.8432 157.19C35.1273 157.114 35.4067 157.076 35.6813 157.076C35.8565 157.076 36.0577 157.097 36.285 157.14C36.5146 157.18 36.736 157.264 36.949 157.392C37.1645 157.52 37.3432 157.713 37.4853 157.971C37.6273 158.229 37.6983 158.575 37.6983 159.008V162.602H36.8603V161.863H36.8176C36.7608 161.981 36.6661 162.108 36.5336 162.243C36.401 162.378 36.2246 162.493 36.0044 162.587C35.7843 162.682 35.5156 162.729 35.1983 162.729ZM35.3262 161.977C35.6576 161.977 35.937 161.911 36.1642 161.781C36.3939 161.651 36.5667 161.483 36.6827 161.277C36.8011 161.071 36.8603 160.854 36.8603 160.627V159.86C36.8248 159.903 36.7466 159.942 36.6259 159.977C36.5075 160.01 36.3702 160.04 36.214 160.066C36.0601 160.09 35.9097 160.111 35.763 160.13C35.6185 160.147 35.5014 160.161 35.4114 160.173C35.1936 160.201 34.99 160.247 34.8006 160.311C34.6136 160.373 34.4621 160.466 34.3461 160.592C34.2324 160.715 34.1756 160.883 34.1756 161.096C34.1756 161.387 34.2833 161.607 34.4988 161.756C34.7166 161.903 34.9924 161.977 35.3262 161.977ZM39.5724 164.647C39.4304 164.647 39.3037 164.635 39.1925 164.612C39.0812 164.59 39.0043 164.569 38.9616 164.548L39.1747 163.809C39.3783 163.861 39.5582 163.88 39.7145 163.866C39.8707 163.852 40.0092 163.782 40.13 163.656C40.2531 163.533 40.3655 163.333 40.4673 163.056L40.6236 162.63L38.6065 157.147H39.5156L41.0213 161.494H41.0781L42.5838 157.147H43.4929L41.1776 163.397C41.0734 163.679 40.9444 163.912 40.7905 164.097C40.6366 164.284 40.4579 164.422 40.2543 164.512C40.053 164.602 39.8258 164.647 39.5724 164.647ZM47.3974 162.602V161.962L49.7979 159.335C50.0797 159.027 50.3117 158.759 50.494 158.532C50.6763 158.302 50.8112 158.087 50.8988 157.886C50.9888 157.682 51.0337 157.469 51.0337 157.246C51.0337 156.991 50.9722 156.769 50.8491 156.582C50.7283 156.395 50.5626 156.251 50.3519 156.149C50.1412 156.047 49.9045 155.996 49.6417 155.996C49.3623 155.996 49.1185 156.054 48.9102 156.17C48.7042 156.284 48.5444 156.444 48.4308 156.65C48.3195 156.856 48.2638 157.097 48.2638 157.374H47.4258C47.4258 156.948 47.524 156.574 47.7205 156.252C47.917 155.93 48.1845 155.679 48.5231 155.499C48.864 155.319 49.2463 155.229 49.6701 155.229C50.0962 155.229 50.4738 155.319 50.8029 155.499C51.132 155.679 51.39 155.922 51.5771 156.227C51.7641 156.533 51.8576 156.872 51.8576 157.246C51.8576 157.514 51.8091 157.776 51.712 158.031C51.6173 158.285 51.4516 158.567 51.2148 158.88C50.9805 159.19 50.6549 159.569 50.2383 160.016L48.6048 161.763V161.82H51.9854V162.602H47.3974ZM55.8242 162.701C55.2892 162.701 54.8335 162.555 54.457 162.264C54.0806 161.971 53.793 161.546 53.5941 160.989C53.3952 160.431 53.2958 159.756 53.2958 158.965C53.2958 158.179 53.3952 157.508 53.5941 156.952C53.7953 156.393 54.0842 155.967 54.4606 155.673C54.8394 155.377 55.2939 155.229 55.8242 155.229C56.3545 155.229 56.8079 155.377 57.1843 155.673C57.5631 155.967 57.8519 156.393 58.0508 156.952C58.252 157.508 58.3526 158.179 58.3526 158.965C58.3526 159.756 58.2532 160.431 58.0543 160.989C57.8555 161.546 57.5678 161.971 57.1914 162.264C56.815 162.555 56.3593 162.701 55.8242 162.701ZM55.8242 161.92C56.3545 161.92 56.7665 161.664 57.06 161.153C57.3536 160.641 57.5004 159.912 57.5004 158.965C57.5004 158.335 57.4329 157.799 57.2979 157.357C57.1654 156.914 56.9736 156.576 56.7227 156.344C56.4741 156.112 56.1746 155.996 55.8242 155.996C55.2987 155.996 54.8879 156.256 54.592 156.774C54.296 157.29 54.1481 158.021 54.1481 158.965C54.1481 159.595 54.2144 160.13 54.3469 160.57C54.4795 161.011 54.6701 161.346 54.9187 161.575C55.1696 161.805 55.4715 161.92 55.8242 161.92ZM59.7021 162.602V161.962L62.1026 159.335C62.3844 159.027 62.6164 158.759 62.7987 158.532C62.9809 158.302 63.1159 158.087 63.2035 157.886C63.2934 157.682 63.3384 157.469 63.3384 157.246C63.3384 156.991 63.2769 156.769 63.1538 156.582C63.033 156.395 62.8673 156.251 62.6566 156.149C62.4459 156.047 62.2092 155.996 61.9464 155.996C61.667 155.996 61.4232 156.054 61.2148 156.17C61.0089 156.284 60.8491 156.444 60.7354 156.65C60.6242 156.856 60.5685 157.097 60.5685 157.374H59.7305C59.7305 156.948 59.8287 156.574 60.0252 156.252C60.2217 155.93 60.4892 155.679 60.8278 155.499C61.1687 155.319 61.551 155.229 61.9748 155.229C62.4009 155.229 62.7785 155.319 63.1076 155.499C63.4367 155.679 63.6947 155.922 63.8817 156.227C64.0688 156.533 64.1623 156.872 64.1623 157.246C64.1623 157.514 64.1138 157.776 64.0167 158.031C63.922 158.285 63.7563 158.567 63.5195 158.88C63.2852 159.19 62.9596 159.569 62.543 160.016L60.9094 161.763V161.82H64.2901V162.602H59.7021ZM65.7567 162.602V161.962L68.1573 159.335C68.439 159.027 68.671 158.759 68.8533 158.532C69.0356 158.302 69.1706 158.087 69.2582 157.886C69.3481 157.682 69.3931 157.469 69.3931 157.246C69.3931 156.991 69.3316 156.769 69.2085 156.582C69.0877 156.395 68.922 156.251 68.7113 156.149C68.5006 156.047 68.2638 155.996 68.0011 155.996C67.7217 155.996 67.4779 156.054 67.2695 156.17C67.0636 156.284 66.9038 156.444 66.7901 156.65C66.6789 156.856 66.6232 157.097 66.6232 157.374H65.7852C65.7852 156.948 65.8834 156.574 66.0799 156.252C66.2764 155.93 66.5439 155.679 66.8825 155.499C67.2234 155.319 67.6057 155.229 68.0295 155.229C68.4556 155.229 68.8332 155.319 69.1623 155.499C69.4914 155.679 69.7494 155.922 69.9364 156.227C70.1235 156.533 70.217 156.872 70.217 157.246C70.217 157.514 70.1684 157.776 70.0714 158.031C69.9767 158.285 69.811 158.567 69.5742 158.88C69.3398 159.19 69.0143 159.569 68.5977 160.016L66.9641 161.763V161.82H70.3448V162.602H65.7567Z" fill="#0E1D44"/>
<path opacity="0.4" d="M100.594 155.329H101.475V160.528C101.475 160.992 101.39 161.386 101.219 161.71C101.049 162.035 100.809 162.281 100.499 162.449C100.188 162.617 99.8227 162.701 99.4013 162.701C99.0036 162.701 98.6496 162.629 98.3395 162.484C98.0294 162.338 97.7855 162.129 97.608 161.859C97.4304 161.589 97.3416 161.269 97.3416 160.897H98.2081C98.2081 161.103 98.259 161.283 98.3608 161.437C98.465 161.588 98.607 161.707 98.7869 161.792C98.9669 161.877 99.1716 161.92 99.4013 161.92C99.6546 161.92 99.87 161.866 100.048 161.76C100.225 161.653 100.36 161.497 100.452 161.291C100.547 161.083 100.594 160.828 100.594 160.528V155.329ZM106.564 160.371V157.147H107.402V162.602H106.564V161.678H106.507C106.379 161.955 106.18 162.191 105.911 162.385C105.641 162.577 105.3 162.673 104.888 162.673C104.547 162.673 104.244 162.598 103.979 162.449C103.714 162.297 103.505 162.07 103.354 161.767C103.202 161.462 103.126 161.077 103.126 160.613V157.147H103.964V160.556C103.964 160.954 104.076 161.271 104.298 161.508C104.523 161.745 104.81 161.863 105.158 161.863C105.366 161.863 105.578 161.81 105.793 161.703C106.011 161.597 106.193 161.433 106.34 161.213C106.489 160.993 106.564 160.712 106.564 160.371ZM109.775 159.32V162.602H108.937V157.147H109.747V157.999H109.818C109.945 157.722 110.14 157.5 110.4 157.332C110.66 157.161 110.997 157.076 111.409 157.076C111.778 157.076 112.101 157.152 112.378 157.303C112.655 157.452 112.87 157.68 113.024 157.985C113.178 158.288 113.255 158.672 113.255 159.136V162.602H112.417V159.192C112.417 158.764 112.306 158.43 112.083 158.191C111.861 157.95 111.555 157.829 111.167 157.829C110.9 157.829 110.66 157.887 110.45 158.003C110.241 158.119 110.077 158.288 109.956 158.511C109.835 158.733 109.775 159.003 109.775 159.32ZM117.585 162.602V161.962L119.985 159.335C120.267 159.027 120.499 158.759 120.681 158.532C120.864 158.302 120.999 158.087 121.086 157.886C121.176 157.682 121.221 157.469 121.221 157.246C121.221 156.991 121.16 156.769 121.037 156.582C120.916 156.395 120.75 156.251 120.539 156.149C120.329 156.047 120.092 155.996 119.829 155.996C119.55 155.996 119.306 156.054 119.098 156.17C118.892 156.284 118.732 156.444 118.618 156.65C118.507 156.856 118.451 157.097 118.451 157.374H117.613C117.613 156.948 117.712 156.574 117.908 156.252C118.105 155.93 118.372 155.679 118.711 155.499C119.051 155.319 119.434 155.229 119.858 155.229C120.284 155.229 120.661 155.319 120.99 155.499C121.319 155.679 121.578 155.922 121.765 156.227C121.952 156.533 122.045 156.872 122.045 157.246C122.045 157.514 121.997 157.776 121.9 158.031C121.805 158.285 121.639 158.567 121.402 158.88C121.168 159.19 120.842 159.569 120.426 160.016L118.792 161.763V161.82H122.173V162.602H117.585ZM126.012 162.701C125.477 162.701 125.021 162.555 124.645 162.264C124.268 161.971 123.98 161.546 123.782 160.989C123.583 160.431 123.483 159.756 123.483 158.965C123.483 158.179 123.583 157.508 123.782 156.952C123.983 156.393 124.272 155.967 124.648 155.673C125.027 155.377 125.481 155.229 126.012 155.229C126.542 155.229 126.995 155.377 127.372 155.673C127.751 155.967 128.039 156.393 128.238 156.952C128.44 157.508 128.54 158.179 128.54 158.965C128.54 159.756 128.441 160.431 128.242 160.989C128.043 161.546 127.755 161.971 127.379 162.264C127.002 162.555 126.547 162.701 126.012 162.701ZM126.012 161.92C126.542 161.92 126.954 161.664 127.248 161.153C127.541 160.641 127.688 159.912 127.688 158.965C127.688 158.335 127.62 157.799 127.485 157.357C127.353 156.914 127.161 156.576 126.91 156.344C126.662 156.112 126.362 155.996 126.012 155.996C125.486 155.996 125.075 156.256 124.779 156.774C124.484 157.29 124.336 158.021 124.336 158.965C124.336 159.595 124.402 160.13 124.534 160.57C124.667 161.011 124.858 161.346 125.106 161.575C125.357 161.805 125.659 161.92 126.012 161.92ZM129.89 162.602V161.962L132.29 159.335C132.572 159.027 132.804 158.759 132.986 158.532C133.168 158.302 133.303 158.087 133.391 157.886C133.481 157.682 133.526 157.469 133.526 157.246C133.526 156.991 133.464 156.769 133.341 156.582C133.221 156.395 133.055 156.251 132.844 156.149C132.633 156.047 132.397 155.996 132.134 155.996C131.855 155.996 131.611 156.054 131.402 156.17C131.196 156.284 131.037 156.444 130.923 156.65C130.812 156.856 130.756 157.097 130.756 157.374H129.918C129.918 156.948 130.016 156.574 130.213 156.252C130.409 155.93 130.677 155.679 131.015 155.499C131.356 155.319 131.739 155.229 132.162 155.229C132.588 155.229 132.966 155.319 133.295 155.499C133.624 155.679 133.882 155.922 134.069 156.227C134.256 156.533 134.35 156.872 134.35 157.246C134.35 157.514 134.301 157.776 134.204 158.031C134.109 158.285 133.944 158.567 133.707 158.88C133.473 159.19 133.147 159.569 132.73 160.016L131.097 161.763V161.82H134.478V162.602H129.89ZM135.944 162.602V161.962L138.345 159.335C138.627 159.027 138.859 158.759 139.041 158.532C139.223 158.302 139.358 158.087 139.446 157.886C139.536 157.682 139.581 157.469 139.581 157.246C139.581 156.991 139.519 156.769 139.396 156.582C139.275 156.395 139.109 156.251 138.899 156.149C138.688 156.047 138.451 155.996 138.189 155.996C137.909 155.996 137.665 156.054 137.457 156.17C137.251 156.284 137.091 156.444 136.978 156.65C136.866 156.856 136.811 157.097 136.811 157.374H135.973C135.973 156.948 136.071 156.574 136.267 156.252C136.464 155.93 136.731 155.679 137.07 155.499C137.411 155.319 137.793 155.229 138.217 155.229C138.643 155.229 139.021 155.319 139.35 155.499C139.679 155.679 139.937 155.922 140.124 156.227C140.311 156.533 140.404 156.872 140.404 157.246C140.404 157.514 140.356 157.776 140.259 158.031C140.164 158.285 139.998 158.567 139.762 158.88C139.527 159.19 139.202 159.569 138.785 160.016L137.152 161.763V161.82H140.532V162.602H135.944Z" fill="#0E1D44"/>
<path opacity="0.4" d="M170.594 155.329H171.475V160.528C171.475 160.992 171.39 161.386 171.219 161.71C171.049 162.035 170.809 162.281 170.499 162.449C170.188 162.617 169.823 162.701 169.401 162.701C169.004 162.701 168.65 162.629 168.339 162.484C168.029 162.338 167.786 162.129 167.608 161.859C167.43 161.589 167.342 161.269 167.342 160.897H168.208C168.208 161.103 168.259 161.283 168.361 161.437C168.465 161.588 168.607 161.707 168.787 161.792C168.967 161.877 169.172 161.92 169.401 161.92C169.655 161.92 169.87 161.866 170.048 161.76C170.225 161.653 170.36 161.497 170.452 161.291C170.547 161.083 170.594 160.828 170.594 160.528V155.329ZM176.564 160.371V157.147H177.402V162.602H176.564V161.678H176.507C176.379 161.955 176.18 162.191 175.911 162.385C175.641 162.577 175.3 162.673 174.888 162.673C174.547 162.673 174.244 162.598 173.979 162.449C173.714 162.297 173.505 162.07 173.354 161.767C173.202 161.462 173.126 161.077 173.126 160.613V157.147H173.964V160.556C173.964 160.954 174.076 161.271 174.298 161.508C174.523 161.745 174.81 161.863 175.158 161.863C175.366 161.863 175.578 161.81 175.793 161.703C176.011 161.597 176.193 161.433 176.34 161.213C176.489 160.993 176.564 160.712 176.564 160.371ZM179.775 155.329V162.602H178.937V155.329H179.775ZM184.108 162.602V161.962L186.509 159.335C186.791 159.027 187.023 158.759 187.205 158.532C187.387 158.302 187.522 158.087 187.61 157.886C187.7 157.682 187.745 157.469 187.745 157.246C187.745 156.991 187.683 156.769 187.56 156.582C187.439 156.395 187.274 156.251 187.063 156.149C186.852 156.047 186.615 155.996 186.353 155.996C186.073 155.996 185.829 156.054 185.621 156.17C185.415 156.284 185.255 156.444 185.142 156.65C185.03 156.856 184.975 157.097 184.975 157.374H184.137C184.137 156.948 184.235 156.574 184.431 156.252C184.628 155.93 184.895 155.679 185.234 155.499C185.575 155.319 185.957 155.229 186.381 155.229C186.807 155.229 187.185 155.319 187.514 155.499C187.843 155.679 188.101 155.922 188.288 156.227C188.475 156.533 188.569 156.872 188.569 157.246C188.569 157.514 188.52 157.776 188.423 158.031C188.328 158.285 188.163 158.567 187.926 158.88C187.691 159.19 187.366 159.569 186.949 160.016L185.316 161.763V161.82H188.696V162.602H184.108ZM192.535 162.701C192 162.701 191.544 162.555 191.168 162.264C190.792 161.971 190.504 161.546 190.305 160.989C190.106 160.431 190.007 159.756 190.007 158.965C190.007 158.179 190.106 157.508 190.305 156.952C190.506 156.393 190.795 155.967 191.172 155.673C191.55 155.377 192.005 155.229 192.535 155.229C193.065 155.229 193.519 155.377 193.895 155.673C194.274 155.967 194.563 156.393 194.762 156.952C194.963 157.508 195.064 158.179 195.064 158.965C195.064 159.756 194.964 160.431 194.765 160.989C194.566 161.546 194.279 161.971 193.902 162.264C193.526 162.555 193.07 162.701 192.535 162.701ZM192.535 161.92C193.065 161.92 193.477 161.664 193.771 161.153C194.065 160.641 194.211 159.912 194.211 158.965C194.211 158.335 194.144 157.799 194.009 157.357C193.876 156.914 193.685 156.576 193.434 156.344C193.185 156.112 192.886 155.996 192.535 155.996C192.01 155.996 191.599 156.256 191.303 156.774C191.007 157.29 190.859 158.021 190.859 158.965C190.859 159.595 190.925 160.13 191.058 160.57C191.19 161.011 191.381 161.346 191.63 161.575C191.881 161.805 192.182 161.92 192.535 161.92ZM196.413 162.602V161.962L198.814 159.335C199.095 159.027 199.327 158.759 199.51 158.532C199.692 158.302 199.827 158.087 199.914 157.886C200.004 157.682 200.049 157.469 200.049 157.246C200.049 156.991 199.988 156.769 199.865 156.582C199.744 156.395 199.578 156.251 199.368 156.149C199.157 156.047 198.92 155.996 198.657 155.996C198.378 155.996 198.134 156.054 197.926 156.17C197.72 156.284 197.56 156.444 197.446 156.65C197.335 156.856 197.279 157.097 197.279 157.374H196.441C196.441 156.948 196.54 156.574 196.736 156.252C196.933 155.93 197.2 155.679 197.539 155.499C197.88 155.319 198.262 155.229 198.686 155.229C199.112 155.229 199.489 155.319 199.819 155.499C200.148 155.679 200.406 155.922 200.593 156.227C200.78 156.533 200.873 156.872 200.873 157.246C200.873 157.514 200.825 157.776 200.728 158.031C200.633 158.285 200.467 158.567 200.23 158.88C199.996 159.19 199.671 159.569 199.254 160.016L197.62 161.763V161.82H201.001V162.602H196.413ZM202.468 162.602V161.962L204.868 159.335C205.15 159.027 205.382 158.759 205.564 158.532C205.747 158.302 205.882 158.087 205.969 157.886C206.059 157.682 206.104 157.469 206.104 157.246C206.104 156.991 206.042 156.769 205.919 156.582C205.799 156.395 205.633 156.251 205.422 156.149C205.212 156.047 204.975 155.996 204.712 155.996C204.433 155.996 204.189 156.054 203.98 156.17C203.775 156.284 203.615 156.444 203.501 156.65C203.39 156.856 203.334 157.097 203.334 157.374H202.496C202.496 156.948 202.594 156.574 202.791 156.252C202.987 155.93 203.255 155.679 203.593 155.499C203.934 155.319 204.317 155.229 204.74 155.229C205.167 155.229 205.544 155.319 205.873 155.499C206.202 155.679 206.46 155.922 206.647 156.227C206.834 156.533 206.928 156.872 206.928 157.246C206.928 157.514 206.879 157.776 206.782 158.031C206.688 158.285 206.522 158.567 206.285 158.88C206.051 159.19 205.725 159.569 205.309 160.016L203.675 161.763V161.82H207.056V162.602H202.468Z" fill="#0E1D44"/>
<path d="M234.815 162.602H233.168L235.678 155.329H237.66L240.167 162.602H238.519L236.697 156.991H236.641L234.815 162.602ZM234.712 159.743H238.604V160.943H234.712V159.743ZM244.512 160.279V157.147H246.025V162.602H244.572V161.611H244.515C244.392 161.93 244.187 162.187 243.901 162.381C243.617 162.576 243.27 162.673 242.86 162.673C242.496 162.673 242.175 162.59 241.898 162.424C241.621 162.258 241.404 162.023 241.248 161.717C241.094 161.412 241.016 161.046 241.014 160.62V157.147H242.527V160.35C242.529 160.672 242.615 160.927 242.786 161.114C242.956 161.301 243.185 161.394 243.471 161.394C243.654 161.394 243.824 161.353 243.983 161.27C244.141 161.185 244.269 161.059 244.366 160.893C244.466 160.728 244.514 160.523 244.512 160.279ZM249.692 164.761C249.202 164.761 248.782 164.693 248.431 164.558C248.083 164.426 247.806 164.245 247.6 164.015C247.394 163.785 247.261 163.527 247.199 163.241L248.598 163.053C248.641 163.161 248.708 163.263 248.801 163.358C248.893 163.453 249.015 163.528 249.166 163.585C249.32 163.644 249.507 163.674 249.727 163.674C250.057 163.674 250.328 163.594 250.541 163.433C250.756 163.274 250.864 163.008 250.864 162.634V161.636H250.8C250.734 161.787 250.634 161.93 250.502 162.065C250.369 162.2 250.199 162.31 249.99 162.396C249.782 162.481 249.533 162.523 249.244 162.523C248.835 162.523 248.462 162.429 248.126 162.239C247.792 162.048 247.526 161.755 247.327 161.362C247.13 160.967 247.032 160.467 247.032 159.864C247.032 159.246 247.133 158.73 247.334 158.315C247.535 157.901 247.803 157.591 248.137 157.385C248.473 157.179 248.841 157.076 249.241 157.076C249.546 157.076 249.802 157.128 250.008 157.232C250.214 157.334 250.38 157.462 250.505 157.616C250.633 157.767 250.731 157.916 250.8 158.063H250.857V157.147H252.359V162.655C252.359 163.119 252.245 163.507 252.018 163.82C251.791 164.132 251.476 164.366 251.073 164.523C250.673 164.681 250.213 164.761 249.692 164.761ZM249.724 161.387C249.968 161.387 250.174 161.327 250.342 161.206C250.512 161.083 250.642 160.908 250.732 160.68C250.825 160.451 250.871 160.176 250.871 159.857C250.871 159.537 250.826 159.26 250.736 159.026C250.646 158.789 250.516 158.605 250.345 158.475C250.175 158.345 249.968 158.28 249.724 158.28C249.475 158.28 249.266 158.347 249.095 158.482C248.925 158.615 248.796 158.799 248.708 159.036C248.621 159.273 248.577 159.546 248.577 159.857C248.577 160.171 248.621 160.444 248.708 160.673C248.798 160.901 248.927 161.077 249.095 161.202C249.266 161.326 249.475 161.387 249.724 161.387ZM255.863 162.602V161.494L258.452 159.097C258.672 158.884 258.857 158.692 259.006 158.521C259.157 158.351 259.272 158.184 259.35 158.021C259.428 157.855 259.467 157.676 259.467 157.484C259.467 157.271 259.419 157.088 259.322 156.934C259.225 156.778 259.092 156.658 258.924 156.575C258.756 156.49 258.565 156.447 258.352 156.447C258.13 156.447 257.936 156.492 257.77 156.582C257.604 156.672 257.476 156.801 257.386 156.969C257.296 157.138 257.251 157.338 257.251 157.57H255.792C255.792 157.094 255.9 156.681 256.115 156.33C256.33 155.98 256.632 155.709 257.021 155.517C257.409 155.325 257.856 155.229 258.363 155.229C258.884 155.229 259.337 155.322 259.723 155.506C260.111 155.689 260.413 155.942 260.629 156.266C260.844 156.591 260.952 156.962 260.952 157.381C260.952 157.656 260.897 157.927 260.788 158.195C260.682 158.462 260.491 158.759 260.217 159.086C259.942 159.41 259.555 159.8 259.055 160.254L257.994 161.295V161.344H261.048V162.602H255.863ZM265.013 162.761C264.403 162.759 263.877 162.609 263.437 162.31C262.999 162.012 262.661 161.58 262.425 161.014C262.19 160.448 262.074 159.768 262.077 158.972C262.077 158.179 262.194 157.503 262.428 156.945C262.665 156.386 263.002 155.961 263.44 155.67C263.881 155.376 264.405 155.229 265.013 155.229C265.622 155.229 266.145 155.376 266.583 155.67C267.023 155.963 267.362 156.389 267.599 156.948C267.835 157.504 267.952 158.179 267.95 158.972C267.95 159.77 267.832 160.452 267.595 161.018C267.361 161.584 267.024 162.016 266.586 162.314C266.148 162.612 265.624 162.761 265.013 162.761ZM265.013 161.487C265.43 161.487 265.763 161.277 266.011 160.858C266.26 160.439 266.383 159.81 266.381 158.972C266.381 158.421 266.324 157.961 266.21 157.594C266.099 157.228 265.94 156.952 265.734 156.767C265.531 156.582 265.29 156.49 265.013 156.49C264.599 156.49 264.268 156.697 264.019 157.112C263.77 157.526 263.645 158.146 263.643 158.972C263.643 159.531 263.698 159.997 263.809 160.371C263.923 160.743 264.083 161.022 264.289 161.21C264.495 161.394 264.736 161.487 265.013 161.487ZM269.047 162.602V161.494L271.635 159.097C271.855 158.884 272.04 158.692 272.189 158.521C272.341 158.351 272.456 158.184 272.534 158.021C272.612 157.855 272.651 157.676 272.651 157.484C272.651 157.271 272.602 157.088 272.505 156.934C272.408 156.778 272.276 156.658 272.108 156.575C271.94 156.49 271.749 156.447 271.536 156.447C271.313 156.447 271.119 156.492 270.953 156.582C270.788 156.672 270.66 156.801 270.57 156.969C270.48 157.138 270.435 157.338 270.435 157.57H268.975C268.975 157.094 269.083 156.681 269.299 156.33C269.514 155.98 269.816 155.709 270.204 155.517C270.592 155.325 271.04 155.229 271.547 155.229C272.067 155.229 272.521 155.322 272.907 155.506C273.295 155.689 273.597 155.942 273.812 156.266C274.028 156.591 274.135 156.962 274.135 157.381C274.135 157.656 274.081 157.927 273.972 158.195C273.865 158.462 273.675 158.759 273.4 159.086C273.126 159.41 272.739 159.8 272.239 160.254L271.177 161.295V161.344H274.231V162.602H269.047ZM275.345 162.602V161.494L277.934 159.097C278.154 158.884 278.339 158.692 278.488 158.521C278.64 158.351 278.754 158.184 278.833 158.021C278.911 157.855 278.95 157.676 278.95 157.484C278.95 157.271 278.901 157.088 278.804 156.934C278.707 156.778 278.575 156.658 278.406 156.575C278.238 156.49 278.048 156.447 277.835 156.447C277.612 156.447 277.418 156.492 277.252 156.582C277.087 156.672 276.959 156.801 276.869 156.969C276.779 157.138 276.734 157.338 276.734 157.57H275.274C275.274 157.094 275.382 156.681 275.597 156.33C275.813 155.98 276.115 155.709 276.503 155.517C276.891 155.325 277.339 155.229 277.845 155.229C278.366 155.229 278.82 155.322 279.205 155.506C279.594 155.689 279.896 155.942 280.111 156.266C280.326 156.591 280.434 156.962 280.434 157.381C280.434 157.656 280.38 157.927 280.271 158.195C280.164 158.462 279.974 158.759 279.699 159.086C279.424 159.41 279.037 159.8 278.538 160.254L277.476 161.295V161.344H280.53V162.602H275.345Z" fill="#0E1D44"/>
<path d="M34.2602 110.852L26 115.811V133.993H280V51.3451L264.66 77.7925L254.039 52.998L241.059 78.619L231.029 68.7012L218.344 77.7925L210.084 53.8245L203.298 24.4844L191.203 50.1053H179.698L171.438 64.982H161.408L153.443 32.336L146.362 87.2971H138.692L126.892 69.5277H117.747L105.357 99.2811H94.7364L90.3113 124.076L84.4111 87.2971H75.856L72.3159 95.1487H64.3508L54.9106 106.306L50.4855 72.4204H40.1603L34.2602 110.852Z" fill="url(#paint0_linear_2302_154046)"/>
<path d="M26 113.969L33.4333 109.596C33.9568 109.288 34.3147 108.762 34.4086 108.162L39.8917 73.1675C40.0463 72.1807 40.8964 71.4534 41.8952 71.4534H48.7099C49.7263 71.4534 50.5858 72.2059 50.7201 73.2135L54.3145 100.183C54.5456 101.917 56.7163 102.564 57.8595 101.241L63.7441 94.4258C64.1293 93.9797 64.6896 93.7232 65.279 93.7232H71.0167C71.8086 93.7232 72.528 93.2624 72.859 92.543L75.3129 87.2103C75.6439 86.4909 76.3633 86.03 77.1552 86.03H82.6882C83.6818 86.03 84.529 86.7498 84.6895 87.7303L88.4164 110.493C88.7842 112.74 92.0049 112.769 92.4128 110.529L94.4332 99.4368C94.6087 98.4729 95.4484 97.7723 96.4283 97.7723H104.015C104.828 97.7723 105.563 97.2862 105.881 96.5376L117.222 69.8538C117.54 69.1052 118.275 68.6191 119.088 68.6191H125.817C126.489 68.6191 127.118 68.9525 127.495 69.5093L138.089 85.1398C138.466 85.6966 139.095 86.03 139.768 86.03H144.584C145.601 86.03 146.462 85.2756 146.594 84.2664L152.048 42.7817C152.34 40.5614 155.486 40.383 156.027 42.5561L161.025 62.6272C161.25 63.5309 162.061 64.1651 162.993 64.1651H170.256C170.986 64.1651 171.66 63.7724 172.02 63.137L179.115 50.6167C179.475 49.9812 180.149 49.5885 180.88 49.5885H189.929C190.708 49.5885 191.418 49.1425 191.756 48.4408L200.813 29.6429C201.643 27.9214 204.175 28.1975 204.614 30.0572L210.084 53.2327L217.456 74.1923C217.902 75.4599 219.435 75.9512 220.534 75.179L229.657 68.7729C230.453 68.2137 231.534 68.2989 232.233 68.976L239.1 75.6286C240.076 76.5744 241.688 76.3109 242.312 75.1036L252.085 56.2035C252.869 54.6873 255.061 54.7587 255.744 56.3226L263.074 73.0889C263.736 74.6036 265.835 74.7322 266.677 73.3097L280 50.8032" stroke="url(#paint1_linear_2302_154046)" stroke-width="1.52096"/>
<g filter="url(#filter0_d_2302_154046)">
<circle cx="202" cy="29" r="5" fill="#F36A6A"/>
<circle cx="202" cy="29" r="4" stroke="white" stroke-width="2"/>
</g>
<defs>
<filter id="filter0_d_2302_154046" x="193" y="24" width="18" height="18" filterUnits="userSpaceOnUse" color-interpolation-filters="sRGB">
<feFlood flood-opacity="0" result="BackgroundImageFix"/>
<feColorMatrix in="SourceAlpha" type="matrix" values="0 0 0 0 0 0 0 0 0 0 0 0 0 0 0 0 0 0 127 0" result="hardAlpha"/>
<feOffset dy="4"/>
<feGaussianBlur stdDeviation="2"/>
<feComposite in2="hardAlpha" operator="out"/>
<feColorMatrix type="matrix" values="0 0 0 0 0 0 0 0 0 0 0 0 0 0 0 0 0 0 0.06 0"/>
<feBlend mode="normal" in2="BackgroundImageFix" result="effect1_dropShadow_2302_154046"/>
<feBlend mode="normal" in="SourceGraphic" in2="effect1_dropShadow_2302_154046" result="shape"/>
</filter>
<linearGradient id="paint0_linear_2302_154046" x1="31.9001" y1="113.331" x2="280" y2="113.121" gradientUnits="userSpaceOnUse">
<stop stop-color="#4CDFE8" stop-opacity="0.05"/>
<stop offset="1" stop-color="#7947F7" stop-opacity="0.05"/>
</linearGradient>
<linearGradient id="paint1_linear_2302_154046" x1="24.525" y1="96.5576" x2="283.835" y2="96.5576" gradientUnits="userSpaceOnUse">
<stop stop-color="#0B57DB"/>
<stop offset="0.5" stop-color="#84E8F4"/>
<stop offset="1" stop-color="#F9896B"/>
</linearGradient>
</defs>
</svg>
