<svg width="34" height="34" viewBox="0 0 34 34" fill="none" xmlns="http://www.w3.org/2000/svg">
<g clip-path="url(#clip0_1303_7181)">
<path d="M25.5 11.3359C26.6272 11.3359 27.7082 11.7837 28.5052 12.5807C29.3022 13.3778 29.75 14.4588 29.75 15.5859C29.75 16.7131 29.3022 17.7941 28.5052 18.5911C27.7082 19.3882 26.6272 19.8359 25.5 19.8359" stroke="#0E1D44" stroke-width="2" stroke-linecap="round" stroke-linejoin="round"/>
<path d="M14.166 11.3359V26.9193C14.166 27.295 14.0168 27.6553 13.7511 27.921C13.4854 28.1867 13.1251 28.3359 12.7493 28.3359H11.3327C10.957 28.3359 10.5966 28.1867 10.3309 27.921C10.0653 27.6553 9.91602 27.295 9.91602 26.9193V19.8359" stroke="#0E1D44" stroke-width="2" stroke-linecap="round" stroke-linejoin="round"/>
<path d="M17 11.3315L23.409 5.99064C23.5952 5.83552 23.8218 5.7367 24.0622 5.70575C24.3026 5.6748 24.5468 5.71301 24.7662 5.81589C24.9857 5.91877 25.1713 6.08207 25.3012 6.28665C25.4312 6.49122 25.5001 6.7286 25.5 6.97097V24.192C25.5001 24.4343 25.4312 24.6717 25.3012 24.8763C25.1713 25.0809 24.9857 25.2442 24.7662 25.347C24.5468 25.4499 24.3026 25.4881 24.0622 25.4572C23.8218 25.4262 23.5952 25.3274 23.409 25.1723L17 19.8315H5.66667C5.29094 19.8315 4.93061 19.6822 4.66493 19.4165C4.39926 19.1509 4.25 18.7905 4.25 18.4148V12.7481C4.25 12.3724 4.39926 12.0121 4.66493 11.7464C4.93061 11.4807 5.29094 11.3315 5.66667 11.3315H17Z" stroke="#0E1D44" stroke-width="2" stroke-linecap="round" stroke-linejoin="round"/>
</g>
<defs>
<clipPath id="clip0_1303_7181">
<rect width="34" height="34" fill="white"/>
</clipPath>
</defs>
</svg>
