<svg width="34" height="34" viewBox="0 0 34 34" fill="none" xmlns="http://www.w3.org/2000/svg">
<g clip-path="url(#clip0_1303_7147)">
<path d="M14.1667 21.2526H5.66667C5.29094 21.2526 4.93061 21.1033 4.66493 20.8377C4.39926 20.572 4.25 20.2117 4.25 19.8359V8.5026C4.25 8.12688 4.39926 7.76655 4.66493 7.50087C4.93061 7.23519 5.29094 7.08594 5.66667 7.08594H14.1667" stroke="#0E1D44" stroke-width="2" stroke-linecap="round" stroke-linejoin="round"/>
<path d="M28.3327 5.66406H19.8327C19.0503 5.66406 18.416 6.29833 18.416 7.08073V26.9141C18.416 27.6965 19.0503 28.3307 19.8327 28.3307H28.3327C29.1151 28.3307 29.7493 27.6965 29.7493 26.9141V7.08073C29.7493 6.29833 29.1151 5.66406 28.3327 5.66406Z" stroke="#0E1D44" stroke-width="2" stroke-linecap="round" stroke-linejoin="round"/>
<path d="M9.91602 26.9141H14.166" stroke="#0E1D44" stroke-width="2" stroke-linecap="round" stroke-linejoin="round"/>
<path d="M24.084 11.3359V11.3501" stroke="#0E1D44" stroke-width="2" stroke-linecap="round" stroke-linejoin="round"/>
<path d="M24.0837 24.0833C24.8661 24.0833 25.5003 23.4491 25.5003 22.6667C25.5003 21.8843 24.8661 21.25 24.0837 21.25C23.3013 21.25 22.667 21.8843 22.667 22.6667C22.667 23.4491 23.3013 24.0833 24.0837 24.0833Z" stroke="#0E1D44" stroke-width="2" stroke-linecap="round" stroke-linejoin="round"/>
<path d="M12.75 21.25V26.9167" stroke="#0E1D44" stroke-width="2" stroke-linecap="round" stroke-linejoin="round"/>
</g>
<defs>
<clipPath id="clip0_1303_7147">
<rect width="34" height="34" fill="white"/>
</clipPath>
</defs>
</svg>
