<svg width="34" height="34" viewBox="0 0 34 34" fill="none" xmlns="http://www.w3.org/2000/svg">
<g clip-path="url(#clip0_1303_7139)">
<path d="M17 29.75C24.0416 29.75 29.75 24.0416 29.75 17C29.75 9.95837 24.0416 4.25 17 4.25C9.95837 4.25 4.25 9.95837 4.25 17C4.25 24.0416 9.95837 29.75 17 29.75Z" stroke="#0E1D44" stroke-width="2" stroke-linecap="round" stroke-linejoin="round"/>
<path d="M17.0007 18.4193C17.7831 18.4193 18.4173 17.785 18.4173 17.0026C18.4173 16.2202 17.7831 15.5859 17.0007 15.5859C16.2182 15.5859 15.584 16.2202 15.584 17.0026C15.584 17.785 16.2182 18.4193 17.0007 18.4193Z" stroke="#0E1D44" stroke-width="2" stroke-linecap="round" stroke-linejoin="round"/>
<path d="M18.998 15.0051L22.6672 11.3359" stroke="#0E1D44" stroke-width="2" stroke-linecap="round" stroke-linejoin="round"/>
<path d="M9.91602 16.9974C9.91602 15.1188 10.6623 13.3171 11.9907 11.9887C13.3191 10.6603 15.1207 9.91406 16.9993 9.91406" stroke="#0E1D44" stroke-width="2" stroke-linecap="round" stroke-linejoin="round"/>
</g>
<defs>
<clipPath id="clip0_1303_7139">
<rect width="34" height="34" fill="white"/>
</clipPath>
</defs>
</svg>
