<svg width="34" height="34" viewBox="0 0 34 34" fill="none" xmlns="http://www.w3.org/2000/svg">
<g clip-path="url(#clip0_1303_7173)">
<path d="M17.0003 9.91667C18.5651 9.91667 19.8337 8.64814 19.8337 7.08333C19.8337 5.51853 18.5651 4.25 17.0003 4.25C15.4355 4.25 14.167 5.51853 14.167 7.08333C14.167 8.64814 15.4355 9.91667 17.0003 9.91667Z" stroke="#0E1D44" stroke-width="2" stroke-linecap="round" stroke-linejoin="round"/>
<path d="M28.3328 17.7109V24.4401C28.342 24.5975 28.3154 24.7549 28.2549 24.9005C28.1603 25.1284 27.9847 25.3131 27.7619 25.419L20.024 29.074C19.0783 29.5208 18.0454 29.7525 16.9994 29.7525C15.9535 29.7525 14.9206 29.5208 13.9749 29.074L6.23703 25.419C6.05442 25.3325 5.90236 25.1926 5.80094 25.0178C5.69951 24.843 5.65349 24.6416 5.66894 24.4401L5.66611 17.7109" stroke="#0E1D44" stroke-width="2" stroke-linecap="round" stroke-linejoin="round"/>
<path d="M6.27738 17.3089L14.2589 14.0052C16.0143 13.2795 17.9859 13.2795 19.7414 14.0052L27.7229 17.3089C27.8997 17.3811 28.0516 17.5035 28.1598 17.6608C28.268 17.8182 28.3279 18.0038 28.3322 18.1947C28.3364 18.3857 28.2847 18.5737 28.1835 18.7357C28.0823 18.8977 27.936 19.0266 27.7625 19.1066L20.0247 22.7092C19.0772 23.1497 18.045 23.378 17.0001 23.378C15.9553 23.378 14.923 23.1497 13.9755 22.7092L6.23771 19.1066C6.0633 19.0273 5.91601 18.8985 5.81408 18.7363C5.71216 18.5741 5.66008 18.3855 5.6643 18.194C5.66852 18.0024 5.72886 17.8163 5.83784 17.6587C5.94682 17.5011 6.09965 17.3804 6.27738 17.3089Z" stroke="#0E1D44" stroke-width="2" stroke-linecap="round" stroke-linejoin="round"/>
<path d="M17 9.91406V18.4141" stroke="#0E1D44" stroke-width="2" stroke-linecap="round" stroke-linejoin="round"/>
</g>
<defs>
<clipPath id="clip0_1303_7173">
<rect width="34" height="34" fill="white"/>
</clipPath>
</defs>
</svg>
