<svg width="34" height="34" viewBox="0 0 34 34" fill="none" xmlns="http://www.w3.org/2000/svg">
<g clip-path="url(#clip0_1303_7157)">
<path d="M24.084 15.5859H9.91732C8.35251 15.5859 7.08398 16.8545 7.08398 18.4193V26.9193C7.08398 28.4841 8.35251 29.7526 9.91732 29.7526H24.084C25.6488 29.7526 26.9173 28.4841 26.9173 26.9193V18.4193C26.9173 16.8545 25.6488 15.5859 24.084 15.5859Z" stroke="#0E1D44" stroke-width="2" stroke-linecap="round" stroke-linejoin="round"/>
<path d="M16.9997 24.0833C17.7821 24.0833 18.4163 23.4491 18.4163 22.6667C18.4163 21.8843 17.7821 21.25 16.9997 21.25C16.2173 21.25 15.583 21.8843 15.583 22.6667C15.583 23.4491 16.2173 24.0833 16.9997 24.0833Z" stroke="#0E1D44" stroke-width="2" stroke-linecap="round" stroke-linejoin="round"/>
<path d="M11.333 15.5833V9.91667C11.333 8.41377 11.93 6.97243 12.9927 5.90973C14.0554 4.84702 15.4968 4.25 16.9997 4.25C18.5026 4.25 19.9439 4.84702 21.0066 5.90973C22.0693 6.97243 22.6663 8.41377 22.6663 9.91667V15.5833" stroke="#0E1D44" stroke-width="2" stroke-linecap="round" stroke-linejoin="round"/>
</g>
<defs>
<clipPath id="clip0_1303_7157">
<rect width="34" height="34" fill="white"/>
</clipPath>
</defs>
</svg>
