<svg width="20" height="20" viewBox="0 0 20 20" fill="none" xmlns="http://www.w3.org/2000/svg">
<g opacity="0.2">
<path fill-rule="evenodd" clip-rule="evenodd" d="M9 0H18C19.1 0 20 0.9 20 2V7C20 8.1 19.1 9 18 9H14L13 10.1V18C13 19.1 12.1 20 11 20H2C0.9 20 0 19.1 0 18V4C0 2.9 0.9 2 2 2H7C7 0.9 7.9 0 9 0ZM2 16V18H11V16H2ZM11 14H2V4H7V7C7 8.1 7.9 9 9 9V12C9 12.4 9.3 12.8 9.6 12.9C10 13 10.4 12.9 10.7 12.6L11 12.3V14ZM13.5 7H18V2H9V7H10C10.6 7 11 7.4 11 8V9.3L12.8 7.3C12.9 7.1 13.2 7 13.5 7Z" fill="#6DA0F7"/>
</g>
</svg>
