<svg width="14" height="20" viewBox="0 0 14 20" fill="none" xmlns="http://www.w3.org/2000/svg">
<path fill-rule="evenodd" clip-rule="evenodd" d="M11 0H3C1.34315 0 0 1.34315 0 3V17C0 18.6569 1.34315 20 3 20H11C12.6569 20 14 18.6569 14 17V3C14 1.34315 12.6569 0 11 0ZM7.70994 14.2877L7.55994 14.1677C7.50419 14.1299 7.44366 14.0996 7.37994 14.0777L7.19994 13.9977C6.8705 13.9289 6.52851 14.0303 6.28994 14.2677C6.20161 14.3649 6.13058 14.4766 6.07994 14.5977C5.92519 14.9703 6.00947 15.3994 6.29364 15.6857C6.5778 15.9721 7.0062 16.0596 7.37994 15.9077C7.49943 15.8498 7.61046 15.7757 7.70994 15.6877C7.99368 15.4002 8.07654 14.9701 7.91994 14.5977C7.87008 14.4821 7.79883 14.3769 7.70994 14.2877ZM11 18C11.5523 18 12 17.5523 12 17V3C12 2.44772 11.5523 2 11 2H3C2.44772 2 2 2.44772 2 3V17C2 17.5523 2.44772 18 3 18H11Z" fill="#0A5AE3"/>
</svg>
