<svg width="26" height="20" viewBox="0 0 26 20" fill="none" xmlns="http://www.w3.org/2000/svg">
<path d="M13.5375 0.1262C13.3345 0.0383772 13.1118 0.00598956 12.8922 0.032342C12.6726 0.0586944 12.4639 0.142843 12.2875 0.2762L6.3125 5.0012H1.75C1.41848 5.0012 1.10054 5.1329 0.866116 5.36732C0.631696 5.60174 0.5 5.91968 0.5 6.2512V13.7512C0.5 14.0827 0.631696 14.4007 0.866116 14.6351C1.10054 14.8695 1.41848 15.0012 1.75 15.0012H6.3125L12.225 19.7262C12.4449 19.9027 12.718 19.9996 13 20.0012C13.1867 20.0043 13.3713 19.9614 13.5375 19.8762C13.7502 19.7749 13.93 19.6155 14.056 19.4165C14.1821 19.2174 14.2493 18.9868 14.25 18.7512V1.2512C14.2493 1.01559 14.1821 0.78497 14.056 0.585924C13.93 0.386877 13.7502 0.227511 13.5375 0.1262ZM11.75 16.1512L7.525 12.7762C7.30507 12.5998 7.03195 12.5028 6.75 12.5012H3V7.50121H6.75C7.03195 7.49957 7.30507 7.40266 7.525 7.22621L11.75 3.8512V16.1512ZM22.8875 10.0012L25.1375 7.76371C25.254 7.64716 25.3465 7.5088 25.4096 7.35652C25.4726 7.20424 25.5051 7.04103 25.5051 6.87621C25.5051 6.71138 25.4726 6.54817 25.4096 6.39589C25.3465 6.24362 25.254 6.10525 25.1375 5.9887C25.0209 5.87216 24.8826 5.77971 24.7303 5.71663C24.578 5.65355 24.4148 5.62109 24.25 5.62109C24.0852 5.62109 23.922 5.65355 23.7697 5.71663C23.6174 5.77971 23.479 5.87216 23.3625 5.9887L21.125 8.23871L18.8875 5.9887C18.6521 5.75332 18.3329 5.62109 18 5.62109C17.6671 5.62109 17.3479 5.75332 17.1125 5.9887C16.8771 6.22408 16.7449 6.54333 16.7449 6.87621C16.7449 7.20908 16.8771 7.52833 17.1125 7.76371L19.3625 10.0012L17.1125 12.2387C16.9953 12.3549 16.9023 12.4932 16.8389 12.6455C16.7754 12.7978 16.7427 12.9612 16.7427 13.1262C16.7427 13.2912 16.7754 13.4546 16.8389 13.6069C16.9023 13.7593 16.9953 13.8975 17.1125 14.0137C17.2287 14.1309 17.3669 14.2239 17.5193 14.2873C17.6716 14.3508 17.835 14.3835 18 14.3835C18.165 14.3835 18.3284 14.3508 18.4807 14.2873C18.633 14.2239 18.7713 14.1309 18.8875 14.0137L21.125 11.7637L23.3625 14.0137C23.4787 14.1309 23.6169 14.2239 23.7693 14.2873C23.9216 14.3508 24.085 14.3835 24.25 14.3835C24.415 14.3835 24.5784 14.3508 24.7307 14.2873C24.883 14.2239 25.0213 14.1309 25.1375 14.0137C25.2546 13.8975 25.3476 13.7593 25.4111 13.6069C25.4746 13.4546 25.5072 13.2912 25.5072 13.1262C25.5072 12.9612 25.4746 12.7978 25.4111 12.6455C25.3476 12.4932 25.2546 12.3549 25.1375 12.2387L22.8875 10.0012Z" fill="#C7DAF8"/>
</svg>
