<svg width="26" height="26" viewBox="0 0 26 26" fill="none" xmlns="http://www.w3.org/2000/svg">
<g clip-path="url(#clip0_1303_12178)">
<path d="M10.9777 5.91443C10.9777 5.37769 11.1909 4.86292 11.5704 4.48338C11.95 4.10385 12.4647 3.89063 13.0015 3.89062C13.5382 3.89063 14.053 4.10385 14.4325 4.48338C14.8121 4.86292 15.0253 5.37769 15.0253 5.91443C16.1874 6.46393 17.178 7.31929 17.8911 8.38884C18.6041 9.4584 19.0126 10.7018 19.0729 11.9859V15.0216C19.1491 15.6507 19.3719 16.2531 19.7234 16.7804C20.0749 17.3077 20.5453 17.745 21.0967 18.0573H4.90625C5.45768 17.745 5.92808 17.3077 6.27959 16.7804C6.63111 16.2531 6.85391 15.6507 6.93006 15.0216V11.9859C6.99033 10.7018 7.39888 9.4584 8.11191 8.38884C8.82495 7.31929 9.8156 6.46393 10.9777 5.91443Z" stroke="white" stroke-width="1.5" stroke-linecap="round" stroke-linejoin="round"/>
<path d="M9.96582 18.0586V19.0705C9.96582 19.8756 10.2857 20.6478 10.855 21.2171C11.4243 21.7864 12.1964 22.1062 13.0015 22.1062C13.8067 22.1062 14.5788 21.7864 15.1481 21.2171C15.7174 20.6478 16.0372 19.8756 16.0372 19.0705V18.0586" stroke="white" stroke-width="1.5" stroke-linecap="round" stroke-linejoin="round"/>
</g>
<defs>
<clipPath id="clip0_1303_12178">
<rect width="24.2857" height="24.2857" fill="white" transform="translate(0.858398 0.855469)"/>
</clipPath>
</defs>
</svg>
