<svg width="77" height="74" viewBox="0 0 77 74" fill="none" xmlns="http://www.w3.org/2000/svg">
<path d="M25.8393 33.344V31.1H33.5233V33.089L29.4943 43H27.0123L30.9223 33.344H25.8393ZM38.6432 43.238C37.1586 43.238 35.9912 42.677 35.1412 41.555C34.3026 40.4103 33.8832 38.9087 33.8832 37.05C33.8832 35.1913 34.3026 33.6953 35.1412 32.562C35.9912 31.4287 37.1586 30.862 38.6432 30.862C40.1506 30.862 41.3179 31.4287 42.1452 32.562C42.9839 33.6953 43.4032 35.1913 43.4032 37.05C43.4032 38.9087 42.9839 40.4103 42.1452 41.555C41.3179 42.677 40.1506 43.238 38.6432 43.238ZM41.0742 37.05C41.0742 35.7807 40.8646 34.8117 40.4452 34.143C40.0372 33.4743 39.4366 33.14 38.6432 33.14C37.8499 33.14 37.2492 33.4743 36.8412 34.143C36.4332 34.8117 36.2292 35.7807 36.2292 37.05C36.2292 38.3193 36.4332 39.2883 36.8412 39.957C37.2492 40.6143 37.8499 40.943 38.6432 40.943C39.4366 40.943 40.0372 40.6087 40.4452 39.94C40.8646 39.2713 41.0742 38.308 41.0742 37.05ZM49.3422 35.673C48.7869 36.2057 48.1069 36.472 47.3022 36.472C46.4862 36.472 45.8006 36.2 45.2452 35.656C44.7012 35.112 44.4292 34.449 44.4292 33.667C44.4292 32.885 44.7012 32.222 45.2452 31.678C45.8119 31.134 46.4976 30.862 47.3022 30.862C48.1182 30.862 48.7982 31.134 49.3422 31.678C49.8862 32.1993 50.1582 32.8623 50.1582 33.667C50.1582 34.4603 49.8862 35.129 49.3422 35.673ZM46.6562 41.793L45.6362 41.198L53.3882 32.579L54.4252 33.157L46.6562 41.793ZM46.5202 34.449C46.7242 34.653 46.9792 34.755 47.2852 34.755C47.5912 34.755 47.8462 34.653 48.0502 34.449C48.2542 34.2337 48.3562 33.973 48.3562 33.667C48.3562 33.361 48.2542 33.106 48.0502 32.902C47.8462 32.698 47.5912 32.596 47.2852 32.596C46.9792 32.596 46.7242 32.698 46.5202 32.902C46.3276 33.106 46.2312 33.361 46.2312 33.667C46.2312 33.973 46.3276 34.2337 46.5202 34.449ZM55.9042 40.399C55.9042 41.181 55.6322 41.844 55.0882 42.388C54.5442 42.932 53.8642 43.204 53.0482 43.204C52.2322 43.204 51.5522 42.932 51.0082 42.388C50.4642 41.844 50.1922 41.181 50.1922 40.399C50.1922 39.617 50.4642 38.954 51.0082 38.41C51.5522 37.866 52.2322 37.594 53.0482 37.594C53.8642 37.594 54.5442 37.866 55.0882 38.41C55.6322 38.954 55.9042 39.617 55.9042 40.399ZM53.7962 41.181C54.0002 40.9657 54.1022 40.705 54.1022 40.399C54.1022 40.093 54.0002 39.838 53.7962 39.634C53.6036 39.4187 53.3542 39.311 53.0482 39.311C52.7422 39.311 52.4872 39.4187 52.2832 39.634C52.0906 39.838 51.9942 40.093 51.9942 40.399C51.9942 40.705 52.0906 40.9657 52.2832 41.181C52.4872 41.385 52.7422 41.487 53.0482 41.487C53.3542 41.487 53.6036 41.385 53.7962 41.181Z" fill="#0E1D44"/>
<path fill-rule="evenodd" clip-rule="evenodd" d="M16.8779 6.34088C23.1574 2.20828 30.5623 0 38.1405 0V5C19.9983 5.00005 5.29106 19.3269 5.29106 37C5.29106 54.6731 19.9983 69 38.1406 69C56.2829 69 70.9902 54.6731 70.9902 37C70.9902 36.5627 70.9812 36.1275 70.9633 35.6945L76.0912 35.4906C76.4004 42.8666 74.4374 50.1642 70.4548 56.4448C66.4722 62.7253 60.652 67.7018 53.7427 70.7343C46.8334 73.7667 39.1508 74.7164 31.6829 73.4613C24.2151 72.2062 17.3033 68.8037 11.8365 63.6913C6.3697 58.5788 2.59778 51.9903 1.00579 44.7728C-0.586209 37.5553 0.0745152 30.0389 2.90299 23.1902C5.73147 16.3414 10.5984 10.4735 16.8779 6.34088Z" fill="#F6F6FC"/>
<path fill-rule="evenodd" clip-rule="evenodd" d="M71.3976 19.1237C74.3576 24.349 75.9698 30.1828 76.1142 36.1242C76.1485 37.539 74.941 38.6335 73.5271 38.5707L72.4144 38.5214C71.6108 38.4857 70.992 37.8044 70.992 37C70.992 19.3269 56.2848 5.00001 38.1425 5.00001C20.0002 5.00001 5.29292 19.3269 5.29292 37C5.29292 49.8253 13.0382 60.8884 24.2209 65.9926C25.4942 66.5738 26.1634 68.0307 25.6593 69.3363C25.1674 70.6106 23.7408 71.2632 22.4908 70.7125C16.8826 68.2418 11.9628 64.4746 8.16754 59.7239C3.86548 54.3388 1.17592 47.8997 0.396211 41.1185C-0.383498 34.3373 0.777018 27.4781 3.74945 21.2993C6.72189 15.1205 11.3905 9.86277 17.239 6.1074C23.0875 2.35203 29.8882 0.245306 36.8892 0.0201523C43.8902 -0.205002 50.8187 1.46018 56.9088 4.8316C62.9988 8.20302 68.0132 13.1493 71.3976 19.1237Z" fill="#FFBC65"/>
</svg>
