<svg width="77" height="74" viewBox="0 0 77 74" fill="none" xmlns="http://www.w3.org/2000/svg">
<path fill-rule="evenodd" clip-rule="evenodd" d="M17.4267 6.34088C23.7062 2.20828 31.1111 0 38.6893 0V5C38.6893 5 38.6893 5 38.6893 5C20.547 5 5.83975 19.3269 5.83975 37C5.83975 54.6731 20.547 69 38.6893 69C56.8316 69 71.5389 54.6731 71.5389 37C71.5389 36.5627 71.5299 36.1275 71.512 35.6945L76.64 35.4906C76.9492 42.8666 74.9863 50.1642 71.0036 56.4448C67.021 62.7253 61.2009 67.7018 54.2915 70.7343C47.3822 73.7667 39.6996 74.7164 32.2318 73.4613C24.7639 72.2062 17.8521 68.8037 12.3853 63.6913C6.91853 58.5788 3.14661 51.9903 1.55461 44.7728C-0.0373807 37.5553 0.623343 30.0389 3.45182 23.1902C6.2803 16.3414 11.1472 10.4735 17.4267 6.34088Z" fill="#F6F6FC"/>
<path fill-rule="evenodd" clip-rule="evenodd" d="M73.8943 23.1073C75.6189 27.2543 76.5544 31.665 76.6628 36.1242C76.6972 37.539 75.4896 38.6335 74.0757 38.5707L72.963 38.5214C72.1594 38.4857 71.5407 37.8044 71.5407 37C71.5407 19.3269 56.8334 5 38.6911 5C38.3632 5 38.0365 5.00468 37.7109 5.01398C36.3368 5.0532 35.1126 4.07219 34.9641 2.70555C34.8143 1.3271 35.8148 0.0815254 37.2004 0.0285091C41.8141 -0.148028 46.4295 0.496194 50.8184 1.93667C56.003 3.63831 60.7491 6.41095 64.7318 10.0649C68.7146 13.7188 71.84 18.1677 73.8943 23.1073Z" fill="#F9896B"/>
<path d="M34.7067 43H26.7507V41.249L30.8137 37.067C31.7203 36.1037 32.1737 35.3103 32.1737 34.687C32.1737 34.2223 32.0263 33.8483 31.7317 33.565C31.4483 33.2817 31.08 33.14 30.6267 33.14C29.72 33.14 29.057 33.6047 28.6377 34.534L26.6657 33.378C27.0283 32.5733 27.5553 31.9557 28.2467 31.525C28.9493 31.083 29.7313 30.862 30.5927 30.862C31.6693 30.862 32.593 31.202 33.3637 31.882C34.1343 32.5507 34.5197 33.4573 34.5197 34.602C34.5197 35.8373 33.868 37.1067 32.5647 38.41L30.2357 40.739H34.7067V43ZM38.6431 35.435H39.8671C41.0231 35.435 41.9864 35.7807 42.7571 36.472C43.5391 37.152 43.9301 38.104 43.9301 39.328C43.9301 40.552 43.5164 41.5097 42.6891 42.201C41.8844 42.8923 40.8814 43.238 39.6801 43.238C38.7054 43.238 37.8498 43.0227 37.1131 42.592C36.3878 42.15 35.8608 41.5153 35.5321 40.688L37.5381 39.515C37.8214 40.467 38.5354 40.943 39.6801 40.943C40.2808 40.943 40.7454 40.8013 41.0741 40.518C41.4141 40.2233 41.5841 39.8267 41.5841 39.328C41.5841 38.8407 41.4198 38.4497 41.0911 38.155C40.7624 37.8603 40.3148 37.713 39.7481 37.713H36.1441L36.6201 31.1H43.3691V33.293H38.7961L38.6431 35.435ZM49.7665 35.673C49.2112 36.2057 48.5312 36.472 47.7265 36.472C46.9105 36.472 46.2249 36.2 45.6695 35.656C45.1255 35.112 44.8535 34.449 44.8535 33.667C44.8535 32.885 45.1255 32.222 45.6695 31.678C46.2362 31.134 46.9219 30.862 47.7265 30.862C48.5425 30.862 49.2225 31.134 49.7665 31.678C50.3105 32.1993 50.5825 32.8623 50.5825 33.667C50.5825 34.4603 50.3105 35.129 49.7665 35.673ZM47.0805 41.793L46.0605 41.198L53.8125 32.579L54.8495 33.157L47.0805 41.793ZM46.9445 34.449C47.1485 34.653 47.4035 34.755 47.7095 34.755C48.0155 34.755 48.2705 34.653 48.4745 34.449C48.6785 34.2337 48.7805 33.973 48.7805 33.667C48.7805 33.361 48.6785 33.106 48.4745 32.902C48.2705 32.698 48.0155 32.596 47.7095 32.596C47.4035 32.596 47.1485 32.698 46.9445 32.902C46.7519 33.106 46.6555 33.361 46.6555 33.667C46.6555 33.973 46.7519 34.2337 46.9445 34.449ZM56.3285 40.399C56.3285 41.181 56.0565 41.844 55.5125 42.388C54.9685 42.932 54.2885 43.204 53.4725 43.204C52.6565 43.204 51.9765 42.932 51.4325 42.388C50.8885 41.844 50.6165 41.181 50.6165 40.399C50.6165 39.617 50.8885 38.954 51.4325 38.41C51.9765 37.866 52.6565 37.594 53.4725 37.594C54.2885 37.594 54.9685 37.866 55.5125 38.41C56.0565 38.954 56.3285 39.617 56.3285 40.399ZM54.2205 41.181C54.4245 40.9657 54.5265 40.705 54.5265 40.399C54.5265 40.093 54.4245 39.838 54.2205 39.634C54.0279 39.4187 53.7785 39.311 53.4725 39.311C53.1665 39.311 52.9115 39.4187 52.7075 39.634C52.5149 39.838 52.4185 40.093 52.4185 40.399C52.4185 40.705 52.5149 40.9657 52.7075 41.181C52.9115 41.385 53.1665 41.487 53.4725 41.487C53.7785 41.487 54.0279 41.385 54.2205 41.181Z" fill="#0E1D44"/>
</svg>
