<svg width="77" height="74" viewBox="0 0 77 74" fill="none" xmlns="http://www.w3.org/2000/svg">
<path d="M28.4322 35.435H29.6562C30.8122 35.435 31.7755 35.7807 32.5462 36.472C33.3282 37.152 33.7192 38.104 33.7192 39.328C33.7192 40.552 33.3055 41.5097 32.4782 42.201C31.6735 42.8923 30.6705 43.238 29.4692 43.238C28.4945 43.238 27.6388 43.0227 26.9022 42.592C26.1768 42.15 25.6498 41.5153 25.3212 40.688L27.3272 39.515C27.6105 40.467 28.3245 40.943 29.4692 40.943C30.0698 40.943 30.5345 40.8013 30.8632 40.518C31.2032 40.2233 31.3732 39.8267 31.3732 39.328C31.3732 38.8407 31.2088 38.4497 30.8802 38.155C30.5515 37.8603 30.1038 37.713 29.5372 37.713H25.9332L26.4092 31.1H33.1582V33.293H28.5852L28.4322 35.435ZM39.3654 43.238C37.8807 43.238 36.7134 42.677 35.8634 41.555C35.0247 40.4103 34.6054 38.9087 34.6054 37.05C34.6054 35.1913 35.0247 33.6953 35.8634 32.562C36.7134 31.4287 37.8807 30.862 39.3654 30.862C40.8727 30.862 42.0401 31.4287 42.8674 32.562C43.7061 33.6953 44.1254 35.1913 44.1254 37.05C44.1254 38.9087 43.7061 40.4103 42.8674 41.555C42.0401 42.677 40.8727 43.238 39.3654 43.238ZM41.7964 37.05C41.7964 35.7807 41.5867 34.8117 41.1674 34.143C40.7594 33.4743 40.1587 33.14 39.3654 33.14C38.5721 33.14 37.9714 33.4743 37.5634 34.143C37.1554 34.8117 36.9514 35.7807 36.9514 37.05C36.9514 38.3193 37.1554 39.2883 37.5634 39.957C37.9714 40.6143 38.5721 40.943 39.3654 40.943C40.1587 40.943 40.7594 40.6087 41.1674 39.94C41.5867 39.2713 41.7964 38.308 41.7964 37.05ZM50.0644 35.673C49.5091 36.2057 48.8291 36.472 48.0244 36.472C47.2084 36.472 46.5227 36.2 45.9674 35.656C45.4234 35.112 45.1514 34.449 45.1514 33.667C45.1514 32.885 45.4234 32.222 45.9674 31.678C46.5341 31.134 47.2197 30.862 48.0244 30.862C48.8404 30.862 49.5204 31.134 50.0644 31.678C50.6084 32.1993 50.8804 32.8623 50.8804 33.667C50.8804 34.4603 50.6084 35.129 50.0644 35.673ZM47.3784 41.793L46.3584 41.198L54.1104 32.579L55.1474 33.157L47.3784 41.793ZM47.2424 34.449C47.4464 34.653 47.7014 34.755 48.0074 34.755C48.3134 34.755 48.5684 34.653 48.7724 34.449C48.9764 34.2337 49.0784 33.973 49.0784 33.667C49.0784 33.361 48.9764 33.106 48.7724 32.902C48.5684 32.698 48.3134 32.596 48.0074 32.596C47.7014 32.596 47.4464 32.698 47.2424 32.902C47.0497 33.106 46.9534 33.361 46.9534 33.667C46.9534 33.973 47.0497 34.2337 47.2424 34.449ZM56.6264 40.399C56.6264 41.181 56.3544 41.844 55.8104 42.388C55.2664 42.932 54.5864 43.204 53.7704 43.204C52.9544 43.204 52.2744 42.932 51.7304 42.388C51.1864 41.844 50.9144 41.181 50.9144 40.399C50.9144 39.617 51.1864 38.954 51.7304 38.41C52.2744 37.866 52.9544 37.594 53.7704 37.594C54.5864 37.594 55.2664 37.866 55.8104 38.41C56.3544 38.954 56.6264 39.617 56.6264 40.399ZM54.5184 41.181C54.7224 40.9657 54.8244 40.705 54.8244 40.399C54.8244 40.093 54.7224 39.838 54.5184 39.634C54.3257 39.4187 54.0764 39.311 53.7704 39.311C53.4644 39.311 53.2094 39.4187 53.0054 39.634C52.8127 39.838 52.7164 40.093 52.7164 40.399C52.7164 40.705 52.8127 40.9657 53.0054 41.181C53.2094 41.385 53.4644 41.487 53.7704 41.487C54.0764 41.487 54.3257 41.385 54.5184 41.181Z" fill="#0E1D44"/>
<path fill-rule="evenodd" clip-rule="evenodd" d="M16.8779 6.34088C23.1574 2.20828 30.5623 0 38.1405 0V5C19.9983 5.00005 5.29106 19.3269 5.29106 37C5.29106 54.6731 19.9983 69 38.1406 69C56.2829 69 70.9902 54.6731 70.9902 37C70.9902 36.5627 70.9812 36.1275 70.9633 35.6945L76.0912 35.4906C76.4004 42.8666 74.4374 50.1642 70.4548 56.4448C66.4722 62.7253 60.652 67.7018 53.7427 70.7343C46.8334 73.7667 39.1508 74.7164 31.6829 73.4613C24.2151 72.2062 17.3033 68.8037 11.8365 63.6913C6.3697 58.5788 2.59778 51.9903 1.00579 44.7728C-0.586209 37.5553 0.0745152 30.0389 2.90299 23.1902C5.73147 16.3414 10.5984 10.4735 16.8779 6.34088Z" fill="#F6F6FC"/>
<path fill-rule="evenodd" clip-rule="evenodd" d="M66.193 12.0552C72.3917 18.6701 75.8965 27.2271 76.1124 36.124C76.1468 37.5389 74.9392 38.6335 73.5253 38.5708L72.4126 38.5214C71.609 38.4857 70.9903 37.8045 70.9903 37C70.9903 19.3269 56.283 5.00004 38.1407 5.00004C21.3922 5.00004 7.57124 17.2101 5.54646 32.991C5.36639 34.3944 4.17986 35.4925 2.76629 35.4297C1.34874 35.3668 0.242243 34.1628 0.409294 32.7537C1.45697 23.9166 5.74555 15.7094 12.5336 9.67322C19.9736 3.05744 29.8066 -0.408311 39.8697 0.0383952C49.9328 0.485102 59.4016 4.80767 66.193 12.0552Z" fill="#0C57DB"/>
</svg>
