<svg width="26" height="26" viewBox="0 0 26 26" fill="none" xmlns="http://www.w3.org/2000/svg">
<g clip-path="url(#clip0_1303_12171)">
<path d="M13.0012 22.1049C18.0309 22.1049 22.1083 18.0275 22.1083 12.9978C22.1083 7.96803 18.0309 3.89062 13.0012 3.89062C7.97145 3.89062 3.89404 7.96803 3.89404 12.9978C3.89404 18.0275 7.97145 22.1049 13.0012 22.1049Z" stroke="white" stroke-width="1.5" stroke-linecap="round" stroke-linejoin="round"/>
<path d="M13.001 18.0586V18.0728" stroke="white" stroke-width="1.5" stroke-linecap="round" stroke-linejoin="round"/>
<path d="M13.0013 14.5164C12.9827 14.1879 13.0713 13.8622 13.2538 13.5885C13.4363 13.3147 13.7029 13.1076 14.0133 12.9985C14.3936 12.8531 14.735 12.6213 15.0106 12.3215C15.2861 12.0217 15.4883 11.662 15.6013 11.2708C15.7142 10.8795 15.7348 10.4674 15.6614 10.0669C15.588 9.66634 15.4226 9.2883 15.1783 8.96254C14.9339 8.63677 14.6173 8.37216 14.2534 8.18955C13.8894 8.00693 13.488 7.9113 13.0808 7.91017C12.6736 7.90904 12.2717 8.00245 11.9067 8.18304C11.5417 8.36363 11.2237 8.62648 10.9775 8.95089" stroke="white" stroke-width="1.5" stroke-linecap="round" stroke-linejoin="round"/>
</g>
<defs>
<clipPath id="clip0_1303_12171">
<rect width="24.2857" height="24.2857" fill="white" transform="translate(0.858398 0.855469)"/>
</clipPath>
</defs>
</svg>
