<svg width="16" height="16" viewBox="0 0 16 16" fill="none" xmlns="http://www.w3.org/2000/svg">
<path fill-rule="evenodd" clip-rule="evenodd" d="M10.6313 11.6598C8.06132 13.7181 4.29945 13.5561 1.91712 11.1738C-0.639041 8.61763 -0.639041 4.47327 1.91712 1.91712C4.47328 -0.639039 8.61765 -0.639039 11.1738 1.91712C13.5562 4.29946 13.7182 8.06134 11.6598 10.6313L15.787 14.7585C16.071 15.0425 16.071 15.503 15.787 15.787C15.503 16.071 15.0425 16.071 14.7585 15.787L10.6313 11.6598ZM2.94564 2.94564C0.957518 4.93376 0.957518 8.15714 2.94564 10.1453C4.93377 12.1334 8.15716 12.1334 10.1453 10.1453C12.1334 8.15714 12.1334 4.93376 10.1453 2.94564C8.15716 0.957516 4.93377 0.957516 2.94564 2.94564Z" fill="white"/>
<mask id="mask0_1303_12207" style="mask-type:luminance" maskUnits="userSpaceOnUse" x="0" y="0" width="16" height="16">
<path fill-rule="evenodd" clip-rule="evenodd" d="M10.6313 11.6598C8.06132 13.7181 4.29945 13.5561 1.91712 11.1738C-0.639041 8.61763 -0.639041 4.47327 1.91712 1.91712C4.47328 -0.639039 8.61765 -0.639039 11.1738 1.91712C13.5562 4.29946 13.7182 8.06134 11.6598 10.6313L15.787 14.7585C16.071 15.0425 16.071 15.503 15.787 15.787C15.503 16.071 15.0425 16.071 14.7585 15.787L10.6313 11.6598ZM2.94564 2.94564C0.957518 4.93376 0.957518 8.15714 2.94564 10.1453C4.93377 12.1334 8.15716 12.1334 10.1453 10.1453C12.1334 8.15714 12.1334 4.93376 10.1453 2.94564C8.15716 0.957516 4.93377 0.957516 2.94564 2.94564Z" fill="white"/>
</mask>
<g mask="url(#mask0_1303_12207)">
</g>
</svg>
