<svg width="9" height="11" viewBox="0 0 9 11" fill="none" xmlns="http://www.w3.org/2000/svg">
<path d="M0.293151 5.98263C0.303952 5.9895 0.318351 5.99225 0.329151 5.99912L7.27195 10.7989C7.66256 11.067 8.29618 11.067 8.68679 10.7989C8.69039 10.7962 8.69219 10.7934 8.69399 10.7907C8.78857 10.731 8.86496 10.6563 8.91782 10.5718C8.97067 10.4872 8.99872 10.3949 9 10.3012L9 0.70024C8.99798 0.604838 8.96856 0.510938 8.91382 0.425174C8.85908 0.339409 8.78035 0.263872 8.68319 0.203899L8.68679 0.201149C8.49025 0.0713993 8.23915 0 7.97937 0C7.71959 0 7.46849 0.0713993 7.27195 0.201149L0.293151 5.01194C0.201239 5.07183 0.127432 5.14624 0.0768209 5.23003C0.0262099 5.31383 2.45779e-07 5.40501 2.45779e-07 5.49728C2.45779e-07 5.58956 0.0262099 5.68074 0.0768209 5.76454C0.127432 5.84833 0.201239 5.92274 0.293151 5.98263V5.98263Z" fill="white"/>
</svg>
