<svg width="7" height="10" viewBox="0 0 7 10" fill="none" xmlns="http://www.w3.org/2000/svg">
<path d="M6.30457 4.60512C6.29737 4.5995 6.28777 4.59725 6.28057 4.59163L1.65203 0.66452C1.39163 0.44516 0.969213 0.44516 0.708806 0.66452C0.706406 0.66677 0.705206 0.669019 0.704006 0.671269C0.640951 0.720074 0.590025 0.781199 0.554788 0.85037C0.519551 0.919542 0.500853 0.995092 0.5 1.07174L0.5 8.92708C0.501345 9.00513 0.520958 9.08196 0.557453 9.15213C0.593948 9.2223 0.646435 9.2841 0.711206 9.33317L0.708806 9.33542C0.839832 9.44158 1.00723 9.5 1.18042 9.5C1.3536 9.5 1.52101 9.44158 1.65203 9.33542L6.30457 5.39932C6.36584 5.35032 6.41505 5.28944 6.44879 5.22088C6.48253 5.15233 6.5 5.07772 6.5 5.00222C6.5 4.92672 6.48253 4.85212 6.44879 4.78356C6.41505 4.715 6.36584 4.65413 6.30457 4.60512V4.60512Z" fill="#0D1F39"/>
</svg>
