<svg width="9" height="15" viewBox="0 0 9 15" fill="none" xmlns="http://www.w3.org/2000/svg">
<path d="M0.456013 8.15813C0.472814 8.1675 0.495213 8.17125 0.512013 8.18062L11.3119 14.7258C11.9195 15.0914 12.9052 15.0914 13.5128 14.7258C13.5184 14.722 13.5212 14.7183 13.524 14.7146C13.6711 14.6332 13.7899 14.5313 13.8722 14.416C13.9544 14.3008 13.998 14.1748 14 14.0471L14 0.954872C13.9969 0.824779 13.9511 0.696734 13.8659 0.579782C13.7808 0.462831 13.6583 0.359826 13.5072 0.278044L13.5128 0.274294C13.2071 0.0973627 12.8165 0 12.4124 0C12.0083 0 11.6177 0.0973627 11.3119 0.274294L0.456013 6.83447C0.313039 6.91614 0.198227 7.0176 0.119499 7.13186C0.0407708 7.24612 2.49871e-07 7.37046 2.49871e-07 7.4963C2.49871e-07 7.62213 0.0407708 7.74647 0.119499 7.86073C0.198227 7.97499 0.313039 8.07646 0.456013 8.15813V8.15813Z" fill="white"/>
</svg>
