<svg width="9" height="12" viewBox="0 0 9 12" fill="none" xmlns="http://www.w3.org/2000/svg">
<path fill-rule="evenodd" clip-rule="evenodd" d="M6.6465 0.931394C6.43138 0.899636 6.11979 0.898438 5.63563 0.898438H4.77157C4.39407 0.898438 4.146 0.899037 3.95425 0.91941C3.77269 0.937985 3.68221 0.971541 3.6145 1.01408C3.54739 1.05663 3.47788 1.12434 3.38321 1.27953C3.28254 1.44432 3.17528 1.66782 3.0129 2.00877L1.07565 6.0774C1.03611 6.16069 1.00315 6.2296 0.975586 6.29012C1.0421 6.29132 1.1188 6.29132 1.21108 6.29132H3.08061C3.11236 6.29132 3.17648 6.29132 3.2346 6.29971C3.30651 6.31049 3.48028 6.34944 3.59293 6.52441C3.70618 6.69878 3.67083 6.87315 3.65045 6.94326C3.63557 6.99246 3.61715 7.04052 3.59533 7.08707L3.59173 7.09426L2.39152 9.76194C2.25669 10.0609 2.14225 10.3162 2.04817 10.5331C2.21475 10.3653 2.40829 10.1634 2.63539 9.92732L6.75196 5.64597C6.84843 5.5459 6.92753 5.46381 6.99164 5.3943C6.8758 5.39273 6.75995 5.39213 6.6441 5.3925H5.25813C5.22218 5.3925 5.15447 5.3925 5.09335 5.38412C4.93623 5.36378 4.79755 5.2714 4.71824 5.13424C4.64149 4.9955 4.63374 4.82892 4.69727 4.68364C4.72124 4.62731 4.75599 4.56859 4.77457 4.53863L4.77936 4.53024L6.27739 2.03274C6.52666 1.61749 6.68605 1.34964 6.76934 1.14831C6.79525 1.09397 6.81264 1.03597 6.82087 0.976335C6.7656 0.952511 6.70699 0.937353 6.6471 0.931394H6.6465ZM6.77914 0.043143C7.07874 0.0874845 7.41669 0.19654 7.60604 0.532097C7.79659 0.867654 7.7163 1.2128 7.60005 1.49323C7.488 1.76347 7.29266 2.08884 7.06676 2.46574L5.84976 4.49407H6.67547C6.94931 4.49407 7.20158 4.49407 7.39392 4.52163C7.57788 4.5474 7.89846 4.6235 8.03747 4.94947C8.17589 5.27603 8.00871 5.55946 7.89966 5.71046C7.78641 5.86805 7.61204 6.04961 7.42209 6.24675C7.41493 6.25437 7.40774 6.26196 7.40051 6.26952L3.26418 10.57C2.82256 11.029 2.46723 11.3982 2.19698 11.6324C2.06216 11.7487 1.91715 11.8601 1.77035 11.9267C1.62594 11.9932 1.36888 12.0633 1.125 11.8985C0.881122 11.7331 0.849963 11.4689 0.857753 11.3101C0.865543 11.1489 0.914079 10.9733 0.971603 10.8049C1.08845 10.4658 1.29817 9.999 1.56003 9.41777L2.5631 7.19051H1.18372C0.994373 7.19051 0.805622 7.19051 0.654621 7.16834C0.48864 7.14377 0.251953 7.07666 0.103349 6.84117C-0.0452548 6.60628 -0.00390941 6.3636 0.0452257 6.20301C0.0901664 6.0574 0.17106 5.88663 0.252552 5.71585L0.264536 5.69129L2.21197 1.60228C2.36177 1.2877 2.4888 1.02045 2.61643 0.811329C2.75305 0.587824 2.91004 0.396676 3.13535 0.254065C3.36065 0.112052 3.60093 0.0527304 3.86039 0.025766C4.10487 0 4.40028 0 4.74902 0H5.6706C6.10982 0 6.48972 0 6.77914 0.043143Z" fill="white"/>
</svg>
