<svg width="18" height="18" viewBox="0 0 18 18" fill="none" xmlns="http://www.w3.org/2000/svg">
<path d="M11.0761 4.4025C11.2484 4.50028 11.4522 4.52598 11.6433 4.47399C11.8344 4.422 11.9972 4.29655 12.0961 4.125C12.178 3.98052 12.3055 3.86729 12.4587 3.80308C12.6118 3.73888 12.782 3.72731 12.9424 3.77021C13.1028 3.8131 13.2445 3.90803 13.3451 4.04011C13.4458 4.17218 13.4998 4.33394 13.4986 4.5C13.4986 4.69891 13.4196 4.88968 13.279 5.03033C13.1383 5.17098 12.9476 5.25 12.7486 5.25C12.5497 5.25 12.359 5.32902 12.2183 5.46967C12.0777 5.61032 11.9986 5.80109 11.9986 6C11.9986 6.19891 12.0777 6.38968 12.2183 6.53033C12.359 6.67098 12.5497 6.75 12.7486 6.75C13.1435 6.74975 13.5314 6.64557 13.8733 6.44793C14.2152 6.25029 14.499 5.96615 14.6963 5.62406C14.8936 5.28198 14.9974 4.89399 14.9972 4.4991C14.997 4.1042 14.893 3.7163 14.6954 3.37438C14.4978 3.03245 14.2138 2.74854 13.8717 2.55117C13.5297 2.35381 13.1417 2.24994 12.7468 2.25C12.3519 2.25006 11.964 2.35406 11.622 2.55153C11.2801 2.74901 10.9961 3.03301 10.7986 3.375C10.7491 3.4606 10.7169 3.55517 10.704 3.65325C10.6911 3.75133 10.6978 3.851 10.7235 3.9465C10.7493 4.04201 10.7938 4.13147 10.8543 4.20973C10.9148 4.28799 10.9902 4.3535 11.0761 4.4025ZM14.3011 9.75C14.1043 9.72445 13.9053 9.77799 13.7478 9.8989C13.5904 10.0198 13.4873 10.1982 13.4611 10.395C13.3038 11.6664 12.6869 12.8363 11.7269 13.6845C10.7668 14.5327 9.52971 15.0006 8.24864 15H4.05614L4.54364 14.5125C4.68333 14.372 4.76173 14.1819 4.76173 13.9837C4.76173 13.7856 4.68333 13.5955 4.54364 13.455C3.81235 12.7208 3.31468 11.7867 3.11331 10.7702C2.91194 9.75372 3.01588 8.70039 3.41204 7.74287C3.8082 6.78536 4.47885 5.96649 5.33953 5.38942C6.20021 4.81234 7.21241 4.50288 8.24864 4.5C8.44755 4.5 8.63832 4.42098 8.77897 4.28033C8.91962 4.13968 8.99864 3.94891 8.99864 3.75C8.99864 3.55109 8.91962 3.36032 8.77897 3.21967C8.63832 3.07902 8.44755 3 8.24864 3C6.98056 3.00529 5.73962 3.36768 4.66799 4.04565C3.59635 4.72361 2.73736 5.68974 2.18944 6.83334C1.64151 7.97694 1.42681 9.25176 1.56992 10.5117C1.71304 11.7717 2.20819 12.9659 2.99864 13.9575L1.71614 15.2175C1.61207 15.323 1.54157 15.4569 1.51354 15.6024C1.48551 15.7479 1.50121 15.8984 1.55864 16.035C1.6149 16.172 1.71045 16.2892 1.83324 16.372C1.95603 16.4547 2.10057 16.4993 2.24864 16.5H8.24864C9.89223 16.5002 11.4794 15.9008 12.7125 14.8141C13.9456 13.7273 14.7398 12.2281 14.9461 10.5975C14.9599 10.4994 14.954 10.3996 14.929 10.3038C14.9039 10.2081 14.8602 10.1182 14.8002 10.0394C14.7402 9.9606 14.6653 9.89446 14.5796 9.84479C14.4939 9.79512 14.3993 9.76291 14.3011 9.75V9.75ZM13.0336 7.5525C12.8971 7.49209 12.7456 7.47381 12.5986 7.5L12.4636 7.545L12.3286 7.6125L12.2161 7.71C12.1487 7.77911 12.0952 7.86061 12.0586 7.95C12.0143 8.04355 11.9937 8.14659 11.9986 8.25C11.9965 8.35003 12.0143 8.44948 12.0511 8.5425C12.0899 8.63251 12.146 8.71405 12.2161 8.7825C12.2862 8.85201 12.3693 8.907 12.4607 8.94433C12.5521 8.98165 12.6499 9.00057 12.7486 9C12.9476 9 13.1383 8.92098 13.279 8.78033C13.4196 8.63968 13.4986 8.44891 13.4986 8.25C13.5012 8.15162 13.4806 8.05401 13.4386 7.965C13.3581 7.78478 13.2139 7.64059 13.0336 7.56V7.5525Z" fill="#525256"/>
</svg>
