<svg width="14" height="16" viewBox="0 0 14 16" fill="none" xmlns="http://www.w3.org/2000/svg">
<path d="M10.9124 13.4831C10.647 13.4831 10.3816 13.4831 10.1162 13.4831C9.48537 13.4831 8.85453 13.4831 8.22369 13.4831C7.46233 13.4831 6.70242 13.4831 5.94106 13.4831C5.29136 13.4831 4.64167 13.4831 3.99342 13.4831C3.69468 13.4831 3.39594 13.4846 3.09864 13.4831C3.04354 13.4831 2.98843 13.4785 2.93332 13.4724C2.99713 13.4815 3.06239 13.4907 3.1262 13.4998C3.02323 13.4846 2.92317 13.4572 2.826 13.4161C2.88401 13.442 2.94202 13.4678 2.99858 13.4922C2.89851 13.4481 2.8057 13.3918 2.72014 13.3218C2.76945 13.3613 2.8173 13.4009 2.86661 13.4405C2.78685 13.375 2.71579 13.3005 2.65343 13.2168C2.69113 13.2685 2.72884 13.3187 2.76655 13.3705C2.70129 13.2807 2.64618 13.1833 2.60412 13.0783C2.62878 13.1392 2.65343 13.2001 2.67663 13.2594C2.63748 13.1575 2.61137 13.0525 2.59687 12.9445C2.60557 13.0114 2.61427 13.0799 2.62297 13.1468C2.60702 13.0144 2.61282 12.879 2.61282 12.7451C2.61282 12.5078 2.61282 12.2704 2.61282 12.0316C2.61282 11.2343 2.61282 10.4371 2.61282 9.63979C2.61282 8.66604 2.61282 7.69077 2.61282 6.71702C2.61282 5.87108 2.61282 5.02513 2.61282 4.17918C2.61282 3.76686 2.61862 3.35454 2.61282 2.94222C2.61282 2.93613 2.61282 2.93005 2.61282 2.92548C2.37064 3.17957 2.1299 3.43214 1.88772 3.68622C1.97908 3.68622 2.07044 3.68622 2.16181 3.68622C2.40979 3.68622 2.65923 3.68622 2.90722 3.68622C3.27267 3.68622 3.63812 3.68622 4.00358 3.68622C4.45169 3.68622 4.89981 3.68622 5.34792 3.68622C5.83954 3.68622 6.32971 3.68622 6.82134 3.68622C7.31441 3.68622 7.80748 3.68622 8.30055 3.68622C8.76317 3.68622 9.22433 3.68622 9.68695 3.68622C10.0771 3.68622 10.4686 3.68622 10.8587 3.68622C11.1401 3.68622 11.42 3.68622 11.7013 3.68622C11.8333 3.68622 11.9667 3.68775 12.0987 3.68622C12.1045 3.68622 12.1103 3.68622 12.1161 3.68622C11.8739 3.43214 11.6331 3.17957 11.3909 2.92548C11.3909 3.26629 11.3909 3.60711 11.3909 3.94792C11.3909 4.75887 11.3909 5.56982 11.3909 6.37925C11.3909 7.35452 11.3909 8.3298 11.3909 9.30507C11.3909 10.1388 11.3909 10.9741 11.3909 11.8079C11.3909 12.1959 11.3924 12.5839 11.3909 12.9718C11.3909 13.0312 11.388 13.089 11.3808 13.1483C11.3895 13.0814 11.3982 13.0129 11.4069 12.946C11.3924 13.054 11.3663 13.159 11.3271 13.2609C11.3518 13.2001 11.3764 13.1392 11.3997 13.0799C11.3576 13.1849 11.3039 13.2822 11.2372 13.372C11.2749 13.3203 11.3126 13.2701 11.3503 13.2183C11.288 13.302 11.2169 13.3766 11.1372 13.442C11.1865 13.4024 11.2343 13.3629 11.2836 13.3233C11.1981 13.3918 11.1053 13.4496 11.0052 13.4937C11.0632 13.4678 11.1212 13.442 11.1778 13.4176C11.0806 13.4587 10.9805 13.4861 10.8776 13.5013C10.9414 13.4922 11.0066 13.4831 11.0705 13.4739C11.0197 13.48 10.966 13.4831 10.9124 13.4831C10.7253 13.4846 10.5324 13.5667 10.399 13.7052C10.2728 13.8376 10.1786 14.0536 10.1873 14.2438C10.196 14.4401 10.2569 14.644 10.399 14.7824C10.5397 14.9178 10.7152 15.0076 10.9124 15.0045C11.4272 15 11.9391 14.7824 12.2973 14.3899C12.6439 14.0095 12.8397 13.5059 12.8426 12.9795C12.8441 12.8653 12.8426 12.7512 12.8426 12.6356C12.8426 12.3389 12.8426 12.0422 12.8426 11.7455C12.8426 11.318 12.8426 10.8889 12.8426 10.4614C12.8426 9.9517 12.8426 9.44352 12.8426 8.93382C12.8426 8.3937 12.8426 7.85357 12.8426 7.31496C12.8426 6.79462 12.8426 6.27427 12.8426 5.75544C12.8426 5.30508 12.8426 4.85625 12.8426 4.40589C12.8426 4.07725 12.8426 3.7486 12.8426 3.41844C12.8426 3.26021 12.8441 3.10349 12.8426 2.94526C12.8426 2.93917 12.8426 2.93157 12.8426 2.92548C12.8426 2.51468 12.5105 2.16474 12.1175 2.16474C12.0261 2.16474 11.9348 2.16474 11.8434 2.16474C11.5954 2.16474 11.346 2.16474 11.098 2.16474C10.7326 2.16474 10.3671 2.16474 10.0016 2.16474C9.55353 2.16474 9.10542 2.16474 8.6573 2.16474C8.16568 2.16474 7.67551 2.16474 7.18389 2.16474C6.69082 2.16474 6.19774 2.16474 5.70467 2.16474C5.24206 2.16474 4.78089 2.16474 4.31827 2.16474C3.92816 2.16474 3.53661 2.16474 3.1465 2.16474C2.86516 2.16474 2.58527 2.16474 2.30393 2.16474C2.17196 2.16474 2.03854 2.16322 1.90657 2.16474C1.90077 2.16474 1.89497 2.16474 1.88917 2.16474C1.49761 2.16474 1.16406 2.51316 1.16406 2.92548C1.16406 3.23434 1.16406 3.54473 1.16406 3.85359C1.16406 4.6052 1.16406 5.35529 1.16406 6.10691C1.16406 7.03501 1.16406 7.96312 1.16406 8.8897C1.16406 9.72956 1.16406 10.5679 1.16406 11.4078C1.16406 11.8931 1.16406 12.38 1.16406 12.8653C1.16406 12.9003 1.16406 12.9353 1.16406 12.9718C1.16551 13.3142 1.24672 13.6337 1.39465 13.9365C1.71659 14.5983 2.41124 15.0015 3.1088 15.003C3.52501 15.0045 3.94122 15.003 4.35743 15.003C5.1797 15.003 6.00052 15.003 6.82279 15.003C7.66971 15.003 8.51808 15.003 9.36501 15.003C9.85808 15.003 10.3511 15.003 10.8442 15.003C10.8674 15.003 10.8906 15.003 10.9138 15.003C11.0995 15.003 11.2952 14.9178 11.4272 14.7809C11.5534 14.6485 11.6476 14.4325 11.6389 14.2423C11.6302 14.046 11.5693 13.8421 11.4272 13.7037C11.2836 13.5698 11.1082 13.4831 10.9124 13.4831Z" fill="#F36A6A"/>
<path d="M8.61876 1.93669e-05C8.37077 1.93669e-05 8.12134 1.93669e-05 7.87335 1.93669e-05C7.38753 1.93669e-05 6.90171 1.93669e-05 6.41734 1.93669e-05C6.08379 1.93669e-05 5.75169 1.93669e-05 5.41814 1.93669e-05C5.37754 1.93669e-05 5.33838 1.9367e-05 5.29778 0.00306234C5.01788 0.0289276 4.73799 0.0989159 4.50306 0.270844C4.27828 0.433643 4.0738 0.639043 3.95053 0.899217C3.83016 1.15483 3.762 1.41348 3.7591 1.70104C3.7562 2.0951 3.7591 2.48917 3.7591 2.88323C3.7591 2.89693 3.7591 2.9091 3.7591 2.92279C3.7591 3.33359 4.0912 3.68353 4.48421 3.68353C4.65098 3.68353 4.81776 3.68353 4.98453 3.68353C5.38479 3.68353 5.78505 3.68353 6.1853 3.68353C6.66967 3.68353 7.15404 3.68353 7.63696 3.68353C8.05608 3.68353 8.47374 3.68353 8.89285 3.68353C9.09588 3.68353 9.30036 3.68658 9.50339 3.68353C9.50629 3.68353 9.50919 3.68353 9.51209 3.68353C9.90364 3.68353 10.2372 3.33511 10.2372 2.92279C10.2372 2.63219 10.2372 2.34311 10.2372 2.0525C10.2372 1.93535 10.2386 1.81972 10.2372 1.70256C10.2357 1.5352 10.2169 1.36175 10.1661 1.20199C10.0878 0.950947 9.97905 0.765326 9.81953 0.562969C9.77603 0.506674 9.72527 0.457986 9.67016 0.413863C9.57155 0.333225 9.47583 0.248021 9.36127 0.193248C9.12053 0.0715291 8.88995 0.00306234 8.61876 1.93669e-05C8.43458 -0.00150212 8.2359 0.086744 8.10538 0.222156C7.97921 0.354525 7.88495 0.570576 7.89365 0.760762C7.91105 1.17613 8.2127 1.51694 8.61876 1.5215C8.65936 1.5215 8.69852 1.52455 8.73767 1.52911C8.67387 1.51998 8.60861 1.51085 8.5448 1.50172C8.62166 1.5139 8.69562 1.53368 8.76813 1.56563C8.71012 1.53976 8.65211 1.5139 8.59555 1.48955C8.66516 1.5215 8.73042 1.56106 8.79133 1.60823C8.74203 1.56867 8.69417 1.52911 8.64486 1.48955C8.71012 1.5428 8.76668 1.60214 8.81744 1.67061C8.77973 1.61888 8.74203 1.56867 8.70432 1.51694C8.74928 1.58084 8.78698 1.64931 8.81744 1.72234C8.79278 1.66148 8.76813 1.60062 8.74493 1.54128C8.77393 1.61736 8.79423 1.69495 8.80583 1.77559C8.79713 1.70865 8.78843 1.64018 8.77973 1.57323C8.80583 1.79994 8.78698 2.03729 8.78698 2.26551C8.78698 2.4846 8.78698 2.7037 8.78698 2.92279C9.02917 2.6687 9.2699 2.41614 9.51209 2.16205C9.34531 2.16205 9.17854 2.16205 9.01176 2.16205C8.61151 2.16205 8.21125 2.16205 7.81099 2.16205C7.32662 2.16205 6.84225 2.16205 6.35933 2.16205C5.94022 2.16205 5.52256 2.16205 5.10345 2.16205C4.90042 2.16205 4.69594 2.15748 4.49291 2.16205C4.49001 2.16205 4.48711 2.16205 4.48421 2.16205C4.72639 2.41614 4.96713 2.6687 5.20931 2.92279C5.20931 2.7037 5.20931 2.4846 5.20931 2.26551C5.20931 2.03729 5.19046 1.79994 5.21656 1.57323C5.20786 1.64018 5.19916 1.70865 5.19046 1.77559C5.20206 1.69495 5.22091 1.61736 5.25137 1.54128C5.22671 1.60214 5.20206 1.663 5.17886 1.72234C5.20931 1.64931 5.24702 1.58084 5.29197 1.51694C5.25427 1.56867 5.21656 1.61888 5.17886 1.67061C5.22962 1.60214 5.28617 1.5428 5.35143 1.48955C5.30213 1.52911 5.25427 1.56867 5.20496 1.60823C5.26587 1.56106 5.33113 1.5215 5.40074 1.48955C5.34273 1.51542 5.28472 1.54128 5.22816 1.56563C5.30068 1.5352 5.37464 1.5139 5.4515 1.50172C5.38769 1.51085 5.32243 1.51998 5.25862 1.52911C5.39059 1.51238 5.52691 1.5215 5.66033 1.5215C5.91556 1.5215 6.16935 1.5215 6.42459 1.5215C7.01918 1.5215 7.61376 1.5215 8.2069 1.5215C8.34467 1.5215 8.48244 1.5215 8.61876 1.5215C8.80438 1.5215 9.00016 1.4363 9.13213 1.29937C9.2583 1.167 9.35256 0.950947 9.34386 0.760762C9.33516 0.56449 9.27425 0.360611 9.13213 0.222156C8.99001 0.0852225 8.81599 1.93669e-05 8.61876 1.93669e-05Z" fill="#F36A6A"/>
<path fill-rule="evenodd" clip-rule="evenodd" d="M13.2743 2.15693H12.9379H12.0228H10.6756H9.03247H7.22551H5.40114H3.70004H2.26869H1.23759C1.18291 2.15693 1.12823 2.15676 1.07361 2.15659L1.07344 2.15659C0.96441 2.15625 0.855591 2.15591 0.747415 2.15693H0.725662C0.540035 2.15693 0.344257 2.24213 0.212288 2.37906C0.0861194 2.51143 -0.00814429 2.72748 0.00055697 2.91767C0.00925823 3.11394 0.0701671 3.31782 0.212288 3.45627C0.354408 3.59321 0.528434 3.67841 0.725662 3.67841H1.06211H1.97719H3.32444H4.96753H6.77449H8.59886H10.3H11.7313H12.7624C12.8171 3.67841 12.8717 3.67858 12.9263 3.67875L12.9264 3.67875C13.0355 3.67909 13.1444 3.67942 13.2526 3.67841H13.2743C13.46 3.67841 13.6557 3.59321 13.7877 3.45627C13.9139 3.3239 14.0081 3.10785 13.9994 2.91767C13.9907 2.7214 13.9298 2.51752 13.7877 2.37906C13.6456 2.24365 13.4716 2.15693 13.2743 2.15693ZM5.92858 11.5809V10.9844V9.55271V7.82126V6.3226C5.92858 6.24146 5.92891 6.16031 5.92923 6.07916V6.07907C5.92987 5.91681 5.93052 5.75455 5.92858 5.59229V5.58164C5.92858 5.38689 5.84737 5.18149 5.71685 5.04303C5.59068 4.91066 5.38475 4.81177 5.20348 4.8209C5.0164 4.83003 4.82207 4.89393 4.6901 5.04303C4.55958 5.19214 4.47837 5.37472 4.47837 5.58164V6.17806V7.60978V9.34123V10.8399C4.47837 10.921 4.47805 11.0022 4.47773 11.0833V11.0834C4.47708 11.2457 4.47644 11.4079 4.47837 11.5702V11.5809C4.47837 11.7756 4.55958 11.981 4.6901 12.1195C4.81627 12.2518 5.0222 12.3507 5.20348 12.3416C5.39055 12.3325 5.58488 12.2686 5.71685 12.1195C5.84737 11.9704 5.92858 11.7878 5.92858 11.5809ZM9.52337 10.9844V11.5809C9.52337 11.7878 9.44071 11.9704 9.31164 12.1195C9.17967 12.2686 8.98535 12.3325 8.79827 12.3416C8.61699 12.3507 8.41106 12.2518 8.28489 12.1195C8.15438 11.981 8.07316 11.7756 8.07316 11.5809V11.5702C8.07123 11.4079 8.07187 11.2456 8.07252 11.0833C8.07284 11.0022 8.07316 10.921 8.07316 10.8399V9.34123V7.60978V6.17806V5.58164C8.07316 5.37472 8.15438 5.19214 8.28489 5.04303C8.41686 4.89393 8.61119 4.83003 8.79827 4.8209C8.97955 4.81177 9.18548 4.91066 9.31164 5.04303C9.44216 5.18149 9.52337 5.38689 9.52337 5.58164V5.59229C9.52531 5.75458 9.52466 5.91687 9.52402 6.07916C9.5237 6.16031 9.52337 6.24146 9.52337 6.3226V7.82126V9.55271V10.9844Z" fill="#F36A6A"/>
</svg>
