<svg width="19" height="18" viewBox="0 0 19 18" fill="none" xmlns="http://www.w3.org/2000/svg">
<path d="M13.5561 14.5808C13.2907 14.5808 13.0253 14.5808 12.76 14.5808C12.1291 14.5808 11.4983 14.5808 10.8674 14.5808C10.1061 14.5808 9.34616 14.5808 8.58479 14.5808C7.9351 14.5808 7.28541 14.5808 6.63716 14.5808C6.33842 14.5808 6.03967 14.5822 5.74238 14.5808C5.68727 14.5808 5.63217 14.5765 5.57706 14.5709C5.64087 14.5794 5.70613 14.5879 5.76994 14.5964C5.66697 14.5822 5.56691 14.5567 5.46974 14.5183C5.52775 14.5425 5.58576 14.5666 5.64232 14.5893C5.54225 14.5481 5.44944 14.4956 5.36388 14.4303C5.41318 14.4672 5.46104 14.5041 5.51035 14.541C5.43059 14.48 5.35953 14.4104 5.29717 14.3323C5.33487 14.3806 5.37258 14.4274 5.41028 14.4757C5.34502 14.3919 5.28992 14.301 5.24786 14.203C5.27251 14.2599 5.29717 14.3167 5.32037 14.372C5.28121 14.2769 5.25511 14.1789 5.24061 14.0781C5.24931 14.1406 5.25801 14.2045 5.26671 14.267C5.25076 14.1434 5.25656 14.017 5.25656 13.892C5.25656 13.6705 5.25656 13.4489 5.25656 13.226C5.25656 12.4818 5.25656 11.7377 5.25656 10.9935C5.25656 10.0846 5.25656 9.17427 5.25656 8.26537C5.25656 7.47576 5.25656 6.68615 5.25656 5.89654C5.25656 5.51168 5.26236 5.12682 5.25656 4.74196C5.25656 4.73628 5.25656 4.7306 5.25656 4.72633C5.01438 4.9635 4.77364 5.19925 4.53146 5.43641C4.62282 5.43641 4.71418 5.43641 4.80555 5.43641C5.05353 5.43641 5.30297 5.43641 5.55095 5.43641C5.91641 5.43641 6.28186 5.43641 6.64731 5.43641C7.09543 5.43641 7.54354 5.43641 7.99166 5.43641C8.48328 5.43641 8.97345 5.43641 9.46507 5.43641C9.95814 5.43641 10.4512 5.43641 10.9443 5.43641C11.4069 5.43641 11.8681 5.43641 12.3307 5.43641C12.7208 5.43641 13.1124 5.43641 13.5025 5.43641C13.7838 5.43641 14.0637 5.43641 14.345 5.43641C14.477 5.43641 14.6104 5.43783 14.7424 5.43641C14.7482 5.43641 14.754 5.43641 14.7598 5.43641C14.5176 5.19925 14.2769 4.9635 14.0347 4.72633C14.0347 5.04445 14.0347 5.36257 14.0347 5.68068C14.0347 6.43762 14.0347 7.19457 14.0347 7.95009C14.0347 8.86041 14.0347 9.77073 14.0347 10.6811C14.0347 11.4593 14.0347 12.239 14.0347 13.0172C14.0347 13.3794 14.0361 13.7415 14.0347 14.1036C14.0347 14.159 14.0318 14.213 14.0245 14.2684C14.0332 14.2059 14.0419 14.142 14.0506 14.0795C14.0361 14.1803 14.01 14.2783 13.9709 14.3735C13.9955 14.3167 14.0202 14.2599 14.0434 14.2045C14.0013 14.3025 13.9477 14.3933 13.881 14.4771C13.9187 14.4289 13.9564 14.382 13.9941 14.3337C13.9317 14.4118 13.8607 14.4814 13.7809 14.5425C13.8302 14.5055 13.8781 14.4686 13.9274 14.4317C13.8418 14.4956 13.749 14.5496 13.6489 14.5907C13.7069 14.5666 13.7649 14.5425 13.8215 14.5197C13.7243 14.5581 13.6243 14.5836 13.5213 14.5978C13.5851 14.5893 13.6504 14.5808 13.7142 14.5723C13.6634 14.578 13.6098 14.5808 13.5561 14.5808C13.369 14.5822 13.1762 14.6589 13.0427 14.7881C12.9166 14.9117 12.8223 15.1134 12.831 15.2909C12.8397 15.4741 12.9006 15.6644 13.0427 15.7936C13.1834 15.92 13.3589 16.0038 13.5561 16.001C14.0709 15.9967 14.5829 15.7936 14.9411 15.4272C15.2877 15.0722 15.4834 14.6021 15.4863 14.1107C15.4878 14.0042 15.4863 13.8977 15.4863 13.7898C15.4863 13.5128 15.4863 13.2359 15.4863 12.959C15.4863 12.5599 15.4863 12.1594 15.4863 11.7604C15.4863 11.2846 15.4863 10.8103 15.4863 10.3345C15.4863 9.83038 15.4863 9.32622 15.4863 8.82349C15.4863 8.3378 15.4863 7.8521 15.4863 7.36783C15.4863 6.94746 15.4863 6.52851 15.4863 6.10815C15.4863 5.80139 15.4863 5.49464 15.4863 5.18647C15.4863 5.03877 15.4878 4.89249 15.4863 4.7448C15.4863 4.73912 15.4863 4.73202 15.4863 4.72633C15.4863 4.34289 15.1543 4.01626 14.7612 4.01626C14.6699 4.01626 14.5785 4.01626 14.4872 4.01626C14.2392 4.01626 13.9897 4.01626 13.7417 4.01626C13.3763 4.01626 13.0108 4.01626 12.6454 4.01626C12.1973 4.01626 11.7492 4.01626 11.301 4.01626C10.8094 4.01626 10.3192 4.01626 9.82763 4.01626C9.33455 4.01626 8.84148 4.01626 8.34841 4.01626C7.88579 4.01626 7.42463 4.01626 6.96201 4.01626C6.5719 4.01626 6.18035 4.01626 5.79024 4.01626C5.5089 4.01626 5.22901 4.01626 4.94767 4.01626C4.8157 4.01626 4.68228 4.01484 4.55031 4.01626C4.54451 4.01626 4.53871 4.01626 4.53291 4.01626C4.14135 4.01626 3.8078 4.34147 3.8078 4.72633C3.8078 5.01463 3.8078 5.30434 3.8078 5.59263C3.8078 6.29419 3.8078 6.99433 3.8078 7.69588C3.8078 8.56218 3.8078 9.42848 3.8078 10.2934C3.8078 11.0773 3.8078 11.8598 3.8078 12.6437C3.8078 13.0967 3.8078 13.5512 3.8078 14.0042C3.8078 14.0369 3.8078 14.0696 3.8078 14.1036C3.80925 14.4232 3.89046 14.7214 4.03838 15.004C4.36033 15.6218 5.05498 15.9981 5.75253 15.9995C6.16874 16.001 6.58495 15.9995 7.00116 15.9995C7.82343 15.9995 8.64425 15.9995 9.46652 15.9995C10.3134 15.9995 11.1618 15.9995 12.0087 15.9995C12.5018 15.9995 12.9949 15.9995 13.488 15.9995C13.5112 15.9995 13.5344 15.9995 13.5576 15.9995C13.7432 15.9995 13.939 15.92 14.0709 15.7922C14.1971 15.6686 14.2914 15.467 14.2827 15.2895C14.274 15.1063 14.2131 14.916 14.0709 14.7867C13.9274 14.6618 13.7519 14.5808 13.5561 14.5808Z" fill="#F36A6A"/>
<path d="M11.2663 2.00002C11.0183 2.00002 10.7689 2.00002 10.5209 2.00002C10.0351 2.00002 9.54923 2.00002 9.06486 2.00002C8.73131 2.00002 8.39921 2.00002 8.06566 2.00002C8.02506 2.00002 7.9859 2.00002 7.9453 2.00286C7.66541 2.027 7.38552 2.09233 7.15058 2.25281C6.9258 2.40476 6.72132 2.59648 6.59805 2.83933C6.47768 3.07792 6.40952 3.31934 6.40662 3.58775C6.40372 3.95557 6.40662 4.3234 6.40662 4.69122C6.40662 4.704 6.40662 4.71536 6.40662 4.72814C6.40662 5.11158 6.73872 5.43822 7.13173 5.43822C7.2985 5.43822 7.46528 5.43822 7.63205 5.43822C8.03231 5.43822 8.43257 5.43822 8.83283 5.43822C9.3172 5.43822 9.80157 5.43822 10.2845 5.43822C10.7036 5.43822 11.1213 5.43822 11.5404 5.43822C11.7434 5.43822 11.9479 5.44106 12.1509 5.43822C12.1538 5.43822 12.1567 5.43822 12.1596 5.43822C12.5512 5.43822 12.8847 5.113 12.8847 4.72814C12.8847 4.45689 12.8847 4.18706 12.8847 3.91581C12.8847 3.80646 12.8862 3.69853 12.8847 3.58917C12.8833 3.43296 12.8644 3.27106 12.8137 3.12194C12.7353 2.88762 12.6266 2.71436 12.4671 2.52548C12.4235 2.47293 12.3728 2.42749 12.3177 2.3863C12.2191 2.31103 12.1234 2.2315 12.0088 2.18038C11.7681 2.06677 11.5375 2.00286 11.2663 2.00002C11.0821 1.9986 10.8834 2.08097 10.7529 2.20736C10.6267 2.33091 10.5325 2.53258 10.5412 2.7101C10.5586 3.0978 10.8602 3.41592 11.2663 3.42018C11.3069 3.42018 11.346 3.42302 11.3852 3.42728C11.3214 3.41876 11.2561 3.41023 11.1923 3.40171C11.2692 3.41307 11.3431 3.43154 11.4157 3.46136C11.3576 3.43722 11.2996 3.41307 11.2431 3.39035C11.3127 3.42018 11.3779 3.4571 11.4389 3.50112C11.3895 3.4642 11.3417 3.42728 11.2924 3.39035C11.3576 3.44006 11.4142 3.49544 11.465 3.55935C11.4273 3.51107 11.3895 3.4642 11.3518 3.41592C11.3968 3.47556 11.4345 3.53947 11.465 3.60764C11.4403 3.55083 11.4157 3.49402 11.3924 3.43864C11.4215 3.50965 11.4418 3.58207 11.4534 3.65734C11.4447 3.59485 11.436 3.53095 11.4273 3.46846C11.4534 3.68006 11.4345 3.90161 11.4345 4.11463C11.4345 4.31913 11.4345 4.52364 11.4345 4.72814C11.6767 4.49097 11.9174 4.25523 12.1596 4.01806C11.9928 4.01806 11.8261 4.01806 11.6593 4.01806C11.259 4.01806 10.8588 4.01806 10.4585 4.01806C9.97414 4.01806 9.48977 4.01806 9.00685 4.01806C8.58774 4.01806 8.17008 4.01806 7.75097 4.01806C7.54794 4.01806 7.34346 4.0138 7.14043 4.01806C7.13753 4.01806 7.13463 4.01806 7.13173 4.01806C7.37391 4.25523 7.61465 4.49097 7.85683 4.72814C7.85683 4.52364 7.85683 4.31913 7.85683 4.11463C7.85683 3.90161 7.83798 3.68006 7.86409 3.46846C7.85538 3.53095 7.84668 3.59485 7.83798 3.65734C7.84958 3.58207 7.86844 3.50965 7.89889 3.43864C7.87424 3.49544 7.84958 3.55225 7.82638 3.60764C7.85683 3.53947 7.89454 3.47556 7.9395 3.41592C7.90179 3.4642 7.86409 3.51107 7.82638 3.55935C7.87714 3.49544 7.9337 3.44006 7.99896 3.39035C7.94965 3.42728 7.90179 3.4642 7.85248 3.50112C7.91339 3.4571 7.97865 3.42018 8.04826 3.39035C7.99025 3.41449 7.93225 3.43864 7.87569 3.46136C7.9482 3.43296 8.02216 3.41307 8.09902 3.40171C8.03521 3.41023 7.96995 3.41876 7.90614 3.42728C8.03811 3.41165 8.17443 3.42018 8.30785 3.42018C8.56309 3.42018 8.81687 3.42018 9.07211 3.42018C9.6667 3.42018 10.2613 3.42018 10.8544 3.42018C10.9922 3.42018 11.13 3.42018 11.2663 3.42018C11.4519 3.42018 11.6477 3.34065 11.7797 3.21283C11.9058 3.08928 12.0001 2.88762 11.9914 2.7101C11.9827 2.5269 11.9218 2.3366 11.7797 2.20736C11.6375 2.07955 11.4635 2.00002 11.2663 2.00002Z" fill="#F36A6A"/>
<path fill-rule="evenodd" clip-rule="evenodd" d="M15.9214 4.01626H15.5849H14.6698H13.3226H11.6795H9.87254H8.04818H6.34708H4.91572H3.88462C3.82994 4.01626 3.77526 4.0161 3.72064 4.01594L3.72048 4.01594C3.61144 4.01562 3.50263 4.01531 3.39445 4.01626H3.3727C3.18707 4.01626 2.99129 4.09578 2.85932 4.2236C2.73315 4.34715 2.63889 4.54881 2.64759 4.72633C2.65629 4.90953 2.7172 5.09984 2.85932 5.22907C3.00144 5.35688 3.17547 5.43641 3.3727 5.43641H3.70915H4.62423H5.97147H7.61456H9.42153H11.2459H12.947H14.3783H15.4094C15.4641 5.43641 15.5188 5.43657 15.5734 5.43673C15.6825 5.43704 15.7914 5.43736 15.8996 5.43641H15.9214C16.107 5.43641 16.3028 5.35688 16.4347 5.22907C16.5609 5.10552 16.6552 4.90385 16.6465 4.72633C16.6378 4.54313 16.5769 4.35283 16.4347 4.2236C16.2926 4.0972 16.1186 4.01626 15.9214 4.01626ZM8.5731 12.8064V12.2497V10.9133V9.29719V7.89833C8.5731 7.82259 8.57342 7.74685 8.57374 7.67111V7.67102C8.57439 7.51957 8.57503 7.36811 8.5731 7.21666V7.20672C8.5731 7.02494 8.49189 6.83322 8.36137 6.70398C8.2352 6.58043 8.02927 6.48812 7.84799 6.49664C7.66092 6.50516 7.46659 6.56481 7.33462 6.70398C7.2041 6.84316 7.12289 7.01358 7.12289 7.20672V7.76342V9.09979V10.7159V12.1148C7.12289 12.1905 7.12257 12.2663 7.12224 12.342V12.3421C7.1216 12.4935 7.12095 12.645 7.12289 12.7965V12.8064C7.12289 12.9882 7.2041 13.1799 7.33462 13.3091C7.46079 13.4327 7.66672 13.525 7.84799 13.5165C8.03507 13.508 8.2294 13.4483 8.36137 13.3091C8.49189 13.17 8.5731 12.9995 8.5731 12.8064ZM12.1696 12.2497V12.8064C12.1696 12.9995 12.0869 13.17 11.9579 13.3091C11.8259 13.4483 11.6316 13.508 11.4445 13.5165C11.2632 13.525 11.0573 13.4327 10.9311 13.3091C10.8006 13.1799 10.7194 12.9882 10.7194 12.8064V12.7965C10.7175 12.645 10.7181 12.4935 10.7187 12.342C10.7191 12.2663 10.7194 12.1905 10.7194 12.1148V10.7159V9.09979V7.76342V7.20672C10.7194 7.01358 10.8006 6.84316 10.9311 6.70398C11.0631 6.56481 11.2574 6.50516 11.4445 6.49664C11.6258 6.48812 11.8317 6.58043 11.9579 6.70398C12.0884 6.83322 12.1696 7.02494 12.1696 7.20672V7.21666C12.1715 7.36814 12.1709 7.51963 12.1702 7.67111C12.1699 7.74685 12.1696 7.82259 12.1696 7.89833V9.29719V10.9133V12.2497Z" fill="#F36A6A"/>
</svg>
