<svg width="16" height="16" viewBox="0 0 16 16" fill="none" xmlns="http://www.w3.org/2000/svg">
<g opacity="0.4">
<path fill-rule="evenodd" clip-rule="evenodd" d="M6.35953 6.5625C6.69939 6.5625 6.97491 6.83802 6.97491 7.17788V11.2804C6.97491 11.6203 6.69939 11.8958 6.35953 11.8958C6.01966 11.8958 5.74414 11.6203 5.74414 11.2804V7.17788C5.74414 6.83802 6.01966 6.5625 6.35953 6.5625Z" fill="#0E1D44"/>
<path fill-rule="evenodd" clip-rule="evenodd" d="M9.64078 6.5625C9.98064 6.5625 10.2562 6.83802 10.2562 7.17788V11.2804C10.2562 11.6203 9.98064 11.8958 9.64078 11.8958C9.30091 11.8958 9.02539 11.6203 9.02539 11.2804V7.17788C9.02539 6.83802 9.30091 6.5625 9.64078 6.5625Z" fill="#0E1D44"/>
<path fill-rule="evenodd" clip-rule="evenodd" d="M6.35897 0C5.11279 0 4.10256 1.01023 4.10256 2.25641V2.46154H0.615385C0.275517 2.46154 0 2.73706 0 3.07692C0 3.41679 0.275517 3.69231 0.615385 3.69231H1.64103V13.7436C1.64103 14.9898 2.65125 16 3.89744 16H12.1026C13.3487 16 14.359 14.9898 14.359 13.7436V3.69231H15.3846C15.7245 3.69231 16 3.41679 16 3.07692C16 2.73706 15.7245 2.46154 15.3846 2.46154H11.8974V2.25641C11.8974 1.01023 10.8872 0 9.64103 0H6.35897ZM10.6667 2.46154V2.25641C10.6667 1.68996 10.2075 1.23077 9.64103 1.23077H6.35897C5.79253 1.23077 5.33333 1.68996 5.33333 2.25641V2.46154H10.6667ZM2.87179 3.69231V13.7436C2.87179 14.31 3.33099 14.7692 3.89744 14.7692H12.1026C12.669 14.7692 13.1282 14.31 13.1282 13.7436V3.69231H2.87179Z" fill="#0E1D44"/>
</g>
</svg>
